<svg width="408" height="408" viewBox="0 0 408 408" fill="none" xmlns="http://www.w3.org/2000/svg">
<g clip-path="url(#clip0_628_15490)">
<path d="M408 0H0V408H408V0Z" fill="#FFA500"/>
<path d="M341.356 176.637L361.181 176.377C361.701 176.377 362.127 175.951 362.127 175.413V171.778C362.127 171.166 361.589 170.721 360.996 170.832L341.171 174.727C340.021 174.949 340.207 176.637 341.375 176.618L341.356 176.637Z" fill="white"/>
<path d="M338.945 170.22L352.539 151.118C352.873 150.636 352.706 149.968 352.186 149.709L346.845 147.094C346.345 146.853 345.733 147.094 345.547 147.613L337.294 169.348C336.905 170.387 338.314 171.147 338.945 170.239V170.22Z" fill="#F36571"/>
<path d="M330.896 172.409L331.286 156.478C331.286 156.089 330.952 155.773 330.563 155.829L326.557 156.385C326.186 156.441 325.926 156.793 326.019 157.164L329.635 172.52C329.802 173.262 330.896 173.15 330.896 172.39V172.409Z" fill="#87D9D7"/>
<path d="M75.7236 48.5222C75.7236 52.8247 74.7593 56.5524 72.7935 59.7051C70.8091 62.8578 68.0087 65.2316 64.3553 66.8451L62 63.5069C64.6149 62.3571 66.7105 60.7622 68.2869 58.7778C69.8633 56.7749 70.772 54.5495 71.0131 52.0829H63.428V48.5222H75.7051H75.7236ZM83.012 70.8509H78.6724V46H83.012V70.8509Z" fill="white"/>
<path d="M99.2395 70.851H94.9369V63.6182H85.9609V60.2801H108.438V63.6182H99.2395V70.851ZM106.064 58.3142H88.3348V47.1313H92.6373V49.5793H101.687V47.0757H106.046V58.3142H106.064ZM101.706 54.8833V52.9175H92.6558V54.8833H101.706Z" fill="white"/>
<path d="M124.072 55.18H109.718V51.8418H124.072V55.18ZM123.219 61.4484C123.219 63.0618 122.625 64.3786 121.457 65.3615C120.27 66.3629 118.824 66.8451 117.062 66.8451C115.3 66.8451 113.891 66.3444 112.741 65.3615C111.591 64.36 111.016 63.0618 111.016 61.4484C111.016 59.8349 111.591 58.5553 112.759 57.5538C113.928 56.5524 115.356 56.0702 117.062 56.0702C118.768 56.0702 120.252 56.5709 121.439 57.5538C122.625 58.5367 123.219 59.8535 123.219 61.4484ZM120.826 50.5807H113.427V47.2055H120.826V50.5807ZM118.731 63.0062C119.176 62.6167 119.399 62.0975 119.399 61.4669C119.399 60.8364 119.176 60.2986 118.731 59.9091C118.286 59.5196 117.729 59.3156 117.08 59.3156C116.431 59.3156 115.912 59.5196 115.485 59.9091C115.059 60.2986 114.855 60.8178 114.855 61.4669C114.855 62.116 115.059 62.6353 115.485 63.0062C115.912 63.3956 116.45 63.5811 117.08 63.5811C117.711 63.5811 118.304 63.3956 118.731 63.0062ZM132.621 59.2786H129.58V70.8695H125.277V46.0186H129.58V55.7364H132.621V59.2786Z" fill="white"/>
<path d="M156.192 68.0691H133.715V64.6938H141.244V56.3298H145.584V64.6938H156.192V68.0691ZM136.033 47.9102H154.245C154.282 49.1527 154.282 50.2098 154.245 51.1185C154.226 53.0102 154.096 55.0687 153.837 57.2756C153.577 59.4825 153.299 61.1702 153.002 62.3571L149.033 61.9491C149.312 60.8549 149.553 59.464 149.738 57.7207C149.924 55.996 150.035 54.6422 150.035 53.6963V51.3411H136.033V47.9102Z" fill="white"/>
<path d="M166.597 63.0247C165.354 61.3185 164.742 59.1487 164.742 56.4967C164.742 53.8447 165.354 51.6749 166.597 49.9687C167.839 48.2625 169.471 47.4095 171.548 47.4095C173.625 47.4095 175.276 48.2625 176.481 49.9502C177.687 51.6378 178.299 53.8262 178.299 56.4967C178.299 59.1673 177.687 61.3185 176.481 63.0247C175.257 64.7309 173.625 65.584 171.548 65.584C169.471 65.584 167.839 64.7309 166.597 63.0247ZM174.108 56.4967C174.108 54.8091 173.867 53.5295 173.384 52.6393C172.902 51.7676 172.29 51.3225 171.53 51.3225C170.769 51.3225 170.195 51.7676 169.731 52.6393C169.267 53.5109 169.045 54.7905 169.045 56.4967C169.045 58.2029 169.267 59.5011 169.731 60.3727C170.195 61.2444 170.788 61.6895 171.53 61.6895C172.272 61.6895 172.902 61.2444 173.384 60.3727C173.867 59.5011 174.108 58.2029 174.108 56.4967ZM184.604 46V55.1058H187.646V58.648H184.604V70.8509H180.265V46H184.604Z" fill="white"/>
<path d="M199.477 64.8607H189.463V48.3553H199.477V54.6236H201.054V46.4265H205.023V69.868H201.054V57.9618H199.477V64.8607ZM195.416 61.6895V51.5636H193.432V61.6895H195.416ZM210.271 70.8509H206.191V46H210.271V70.8509Z" fill="white"/>
<path d="M227.908 61.2258L228.26 64.6753C225.386 65.1945 221.862 65.4727 217.652 65.5098C215.594 65.5098 214.333 65.5098 213.906 65.4913V54.8091H221.324V51.6564H213.906V48.1513H225.701V58.2215H218.283V61.912C221.77 62.0233 224.996 61.8007 227.908 61.2258ZM233.546 70.8509H229.188V46H233.546V70.8509Z" fill="white"/>
<path d="M249.606 48.2811C249.606 50.4324 249.42 52.4167 249.068 54.1971C248.715 55.996 248.122 57.7207 247.306 59.4084C246.49 61.0775 245.34 62.5982 243.875 63.952C242.41 65.3058 240.648 66.4556 238.59 67.42L236.253 64.0818C239.628 62.5426 242.039 60.4469 243.486 57.8135L236.995 58.444L236.531 54.8276L244.728 54.4197C244.895 53.6778 244.988 52.8247 245.025 51.8233H237.829V48.2811H249.624H249.606ZM256.171 46.0186V55.18H259.268V58.7222H256.171V70.8695H251.924V46.0186H256.171Z" fill="white"/>
<path d="M282.839 68.1988H260.362V64.8792H269.45V59.6679H262.736V47.7988H267.131V56.3297H280.577V59.6679H273.752V64.8792H282.839V68.1988Z" fill="white"/>
<path d="M304.352 59.1302H292.075V47.1684H296.322V50.0615H299.994V47.1684H304.352V59.1302ZM311.585 70.6098H294.672V61.0218H311.362V64.4527H298.937V67.1789H311.585V70.6098ZM299.994 55.792V53.344H296.322V55.792H299.994ZM314.274 54.9389H311.214V59.9833H306.874V46.0186H311.214V51.4338H314.274V54.9389Z" fill="white"/>
<path d="M329.537 51.8047H324.956C325.011 54.4567 325.512 56.6265 326.458 58.3142C327.404 60.0018 328.832 61.3185 330.742 62.2829L328.387 65.6767C327.367 65.1575 326.273 64.2858 325.104 63.0618C323.936 61.8378 323.157 60.6695 322.786 59.5753C322.471 60.7993 321.766 62.0418 320.653 63.3585C319.541 64.6753 318.409 65.6025 317.241 66.1775L314.756 62.9135C316.851 61.7451 318.335 60.2985 319.207 58.5738C320.078 56.8676 320.523 54.6051 320.579 51.8047H315.776V48.2996H329.518V51.8047H329.537ZM338.179 58.6851H335.119V70.8509H330.835V46H335.119V55.1615H338.179V58.6665V58.6851Z" fill="white"/>
<path d="M340.497 61.0774L339.773 47.7803H345.133L344.465 61.0774H340.497ZM340.219 68.0134V63.8963H344.744V68.0134H340.219Z" fill="white"/>
<path d="M77.6222 333.642H70V326.335H77.6222V333.642ZM75.9902 332.325V327.633H71.632V332.325H75.9902ZM81.3498 335.756C82.3142 336.331 82.7964 337.092 82.7964 338.075C82.7964 339.057 82.3142 339.818 81.3498 340.393C80.3855 340.968 79.0316 341.246 77.2884 341.246C75.5451 341.246 74.1913 340.968 73.2269 340.393C72.2625 339.818 71.7618 339.057 71.7618 338.075C71.7618 337.092 72.244 336.331 73.2269 335.756C74.2098 335.181 75.5636 334.903 77.2884 334.903C79.0131 334.903 80.3855 335.181 81.3498 335.756ZM77.2884 336.276C76.0829 336.276 75.1556 336.443 74.488 336.758C73.8204 337.073 73.468 337.518 73.468 338.075C73.468 338.631 73.8018 339.076 74.488 339.391C75.1556 339.707 76.1015 339.873 77.2884 339.873C78.4753 339.873 79.4396 339.707 80.1073 339.391C80.7749 339.076 81.1273 338.631 81.1273 338.075C81.1273 337.518 80.7934 337.073 80.1073 336.758C79.4211 336.443 78.4938 336.276 77.2884 336.276ZM81.0531 330.452H78.4196V329.099H81.0531V325.019H82.7036V334.977H81.0531V330.452Z" fill="white"/>
<path d="M97.7995 331.176H88.805V333.531H98.5042V334.848H93.5526V337.833H100.081V339.169H85.4482V337.833H91.9021V334.848H87.173V326.409H98.3373V327.763H88.805V329.877H97.7995V331.176Z" fill="white"/>
<path d="M111.746 335.404L111.876 336.721C110.596 336.906 108.945 337.055 106.924 337.147C104.717 337.259 102.974 337.314 101.657 337.314L101.435 335.923C102.455 335.923 103.233 335.923 103.753 335.923L103.215 329.321L104.847 329.136L105.273 335.886L106.943 335.812C107.054 335.812 107.258 335.812 107.555 335.775L107.981 329.117L109.595 329.303L109.001 335.701C110.207 335.627 111.115 335.534 111.746 335.423V335.404ZM110.985 327.967H101.898V326.632H110.985V327.967ZM114.75 341.227H113.118V325.019H114.75V341.227Z" fill="white"/>
<path d="M118.812 336.035C118.126 334.977 117.773 333.605 117.773 331.899C117.773 330.193 118.126 328.802 118.812 327.763C119.498 326.706 120.537 326.187 121.891 326.187C123.244 326.187 124.283 326.725 124.951 327.763C125.637 328.82 125.989 330.211 125.989 331.936C125.989 333.661 125.637 334.996 124.951 336.053C124.264 337.11 123.244 337.629 121.891 337.629C120.537 337.629 119.498 337.11 118.812 336.053V336.035ZM124.376 331.917C124.376 330.619 124.153 329.562 123.727 328.765C123.3 327.967 122.688 327.559 121.891 327.559C121.093 327.559 120.5 327.949 120.073 328.746C119.647 329.544 119.424 330.582 119.424 331.899C119.424 333.216 119.647 334.217 120.073 335.015C120.5 335.812 121.112 336.201 121.891 336.201C122.669 336.201 123.3 335.812 123.727 335.015C124.153 334.217 124.376 333.179 124.376 331.899V331.917ZM132.647 332.808H130.051V341.227H128.4V325.019H130.051V331.454H132.647V332.808Z" fill="white"/>
<path d="M146.704 326.743C146.648 329.265 145.999 331.472 144.757 333.383C143.514 335.293 141.752 336.851 139.471 338.093L138.47 336.851C140.343 335.942 141.864 334.718 142.995 333.141C144.145 331.565 144.775 329.896 144.924 328.134H139.156V326.743H146.685H146.704ZM150.969 325.019V331.658H153.566V333.03H150.969V341.227H149.337V325.019H150.969Z" fill="white"/>
<path d="M156.144 326.855C156.941 326.131 157.924 325.779 159.093 325.779C160.261 325.779 161.244 326.131 162.041 326.836C162.839 327.541 163.228 328.468 163.228 329.618C163.228 330.768 162.839 331.676 162.041 332.363C161.262 333.049 160.261 333.401 159.093 333.401C157.924 333.401 156.923 333.049 156.125 332.363C155.328 331.676 154.938 330.768 154.938 329.636C154.938 328.505 155.346 327.596 156.144 326.855ZM159.093 327.207C158.369 327.207 157.776 327.429 157.312 327.856C156.849 328.283 156.608 328.876 156.608 329.599C156.608 330.323 156.849 330.897 157.312 331.324C157.794 331.751 158.388 331.973 159.093 331.973C159.797 331.973 160.409 331.769 160.873 331.343C161.337 330.916 161.578 330.341 161.578 329.618C161.578 328.895 161.355 328.301 160.873 327.875C160.391 327.448 159.816 327.225 159.093 327.225V327.207ZM167.79 341.023H157.257V334.588H158.889V336.498H166.14V334.569H167.79V341.023ZM166.14 339.707V337.796H158.889V339.707H166.14ZM167.772 333.698H166.121V325.019H167.772V333.698Z" fill="white"/>
<path d="M180.049 330.193H170.442V328.876H180.049V330.193ZM179.14 334.532C179.14 335.515 178.788 336.313 178.083 336.962C177.378 337.611 176.451 337.926 175.32 337.926C174.189 337.926 173.261 337.611 172.538 336.962C171.833 336.331 171.462 335.515 171.462 334.532C171.462 333.549 171.815 332.733 172.538 332.084C173.261 331.435 174.17 331.101 175.301 331.101C176.433 331.101 177.36 331.417 178.065 332.066C178.769 332.715 179.122 333.531 179.122 334.514L179.14 334.532ZM177.694 327.411H172.853V326.076H177.694V327.411ZM176.915 335.979C177.323 335.608 177.508 335.126 177.508 334.514C177.508 333.902 177.304 333.438 176.878 333.049C176.451 332.659 175.932 332.474 175.301 332.474C174.671 332.474 174.151 332.659 173.743 333.049C173.335 333.438 173.113 333.92 173.113 334.532C173.113 335.144 173.317 335.608 173.725 335.997C174.133 336.368 174.652 336.572 175.301 336.572C175.95 336.572 176.507 336.387 176.915 335.997V335.979ZM185.613 333.123H183.035V341.209H181.384V325H183.035V331.751H185.613V333.123Z" fill="white"/>
<path d="M201.21 338.872H186.577V337.518H192.141V332.066H193.791V337.518H201.21V338.872ZM199.318 326.521V329.006C199.281 331.639 199.058 333.846 198.632 335.627C197.946 335.497 197.408 335.423 197.055 335.367C197.445 333.865 197.63 332.01 197.63 329.803V327.856H188.079V326.521H199.318Z" fill="white"/>
<path d="M220.812 334.588H215.582V337.834H222.11V339.169H207.478V337.834H213.931V334.588H208.683V333.253H211.391L210.964 329.024L212.633 328.783L212.948 333.253H216.62L217.251 328.82L218.846 329.099L218.16 333.253H220.812V334.588ZM220.83 327.986H208.664V326.669H220.83V327.986Z" fill="white"/>
<path d="M225.133 327.263C225.949 326.484 226.988 326.113 228.23 326.113C229.473 326.113 230.511 326.502 231.327 327.263C232.143 328.023 232.57 328.987 232.57 330.156C232.57 331.324 232.162 332.27 231.346 333.012C230.53 333.753 229.491 334.106 228.23 334.106C226.969 334.106 225.949 333.735 225.133 333.012C224.317 332.288 223.909 331.324 223.909 330.193C223.909 329.061 224.317 328.06 225.133 327.281V327.263ZM228.23 327.522C227.47 327.522 226.858 327.763 226.376 328.264C225.894 328.765 225.634 329.377 225.634 330.137C225.634 330.897 225.875 331.491 226.376 331.992C226.876 332.492 227.488 332.733 228.23 332.733C229.028 332.733 229.658 332.492 230.122 332.01C230.586 331.528 230.827 330.916 230.827 330.156C230.827 329.395 230.586 328.746 230.122 328.264C229.658 327.782 229.028 327.522 228.23 327.522ZM237.206 340.727H226.172V335.682H227.822V339.41H237.206V340.727ZM236.835 336.795H235.185V325.019H236.835V336.795Z" fill="white"/>
<path d="M254.194 339.169H239.562V337.834H254.194V339.169ZM251.913 331.361H242.955V333.661H252.432V335.015H241.323V326.558H252.284V327.893H242.955V330.063H251.913V331.361Z" fill="white"/>
<path d="M270.253 339.169H255.621V337.833H262.075V335.274H257.383V330.063H266.804V327.689H257.346V326.354H268.436V331.398H259.015V333.939H268.881V335.274H263.725V337.833H270.253V339.169Z" fill="white"/>
<path d="M285.09 326.743C285.035 329.228 284.349 331.417 283.013 333.327C281.678 335.237 279.861 336.832 277.542 338.075L276.541 336.832C278.451 335.923 280.028 334.662 281.252 333.104C282.476 331.528 283.162 329.859 283.292 328.116H277.264V326.725H285.072L285.09 326.743ZM289.838 341.227H288.188V325.019H289.838V341.227Z" fill="white"/>
<path d="M300.669 341.246H299.018V335.979H292.564V334.625H307.197V335.979H300.669V341.246ZM305.398 332.789H294.326V325.631H295.977V327.93H303.766V325.631H305.398V332.789ZM303.766 331.472V329.266H295.977V331.472H303.766Z" fill="white"/>
<path d="M318.119 330.193H308.513V328.876H318.119V330.193ZM317.211 334.532C317.211 335.515 316.858 336.313 316.153 336.962C315.449 337.611 314.521 337.926 313.39 337.926C312.259 337.926 311.332 337.611 310.608 336.962C309.904 336.331 309.533 335.515 309.533 334.532C309.533 333.549 309.885 332.733 310.608 332.084C311.332 331.435 312.24 331.101 313.372 331.101C314.503 331.101 315.43 331.417 316.135 332.066C316.84 332.715 317.192 333.531 317.192 334.514L317.211 334.532ZM315.764 327.411H310.924V326.076H315.764V327.411ZM314.985 335.979C315.393 335.608 315.597 335.126 315.597 334.514C315.597 333.902 315.393 333.438 314.967 333.049C314.54 332.659 314.021 332.474 313.39 332.474C312.76 332.474 312.24 332.659 311.832 333.049C311.424 333.438 311.22 333.92 311.22 334.532C311.22 335.144 311.424 335.608 311.832 335.997C312.24 336.368 312.76 336.572 313.409 336.572C314.058 336.572 314.614 336.387 315.022 335.997L314.985 335.979ZM323.683 333.123H321.105V341.209H319.455V325H321.105V331.751H323.683V333.123Z" fill="white"/>
<path d="M332.882 334.087H325.39V326.447H332.882V334.087ZM331.269 332.789V327.763H327.003V332.789H331.269ZM338.297 340.727H327.43V335.738H329.062V339.391H338.297V340.727ZM336.294 329.043H333.679V327.726H336.294V325.019H337.945V336.795H336.294V332.622H333.679V331.305H336.294V329.043Z" fill="white"/>
<path d="M85.7454 363.482H84.1134V357.844H80.4414V356.49H95.0738V357.844H91.3461V363.482H89.7141V357.844H85.7454V363.482ZM93.4974 351.557C93.4974 352.614 92.9781 353.486 91.9396 354.135C90.901 354.784 89.5101 355.118 87.7483 355.118C85.9865 355.118 84.5956 354.784 83.5756 354.135C82.5556 353.486 82.0363 352.614 82.0363 351.557C82.0363 350.5 82.5556 349.665 83.5756 348.998C84.5956 348.33 86.005 348.033 87.7483 348.033C89.4916 348.033 90.901 348.349 91.9396 348.998C92.9781 349.647 93.4974 350.5 93.4974 351.557ZM90.6785 350.018C89.9367 349.628 88.9723 349.424 87.7483 349.424C86.5243 349.424 85.5414 349.628 84.8181 350.018C84.0949 350.407 83.724 350.927 83.724 351.557C83.724 352.188 84.0949 352.725 84.8181 353.115C85.5414 353.504 86.5243 353.708 87.7669 353.708C89.0094 353.708 89.9923 353.504 90.7156 353.115C91.4389 352.725 91.8098 352.206 91.8098 351.557C91.8098 350.908 91.4389 350.407 90.697 350.018H90.6785Z" fill="white"/>
<path d="M105.032 348.998C104.976 351.483 104.29 353.671 102.955 355.582C101.62 357.492 99.8021 359.087 97.5024 360.329L96.501 359.087C98.4112 358.178 99.9875 356.917 101.193 355.359C102.417 353.783 103.103 352.114 103.233 350.37H97.2057V348.979H105.013L105.032 348.998ZM109.78 363.482H108.129V347.273H109.78V363.482Z" fill="white"/>
<path d="M113.396 348.553H120.666C120.592 350.723 119.924 352.54 118.626 354.042C117.346 355.544 115.622 356.602 113.452 357.232L112.617 355.897C114.305 355.47 115.696 354.728 116.827 353.653C117.958 352.577 118.626 351.335 118.867 349.907H113.396V348.553ZM126.211 363.074H115.325V358.011H116.957V361.739H126.211V363.074ZM120.796 355.507V354.172H124.171V351.872H120.963V350.519H124.171V347.273H125.822V359.05H124.171V355.507H120.796Z" fill="white"/>
<path d="M141.418 356.972H136.671V360.162H143.199V361.497H128.566V360.162H135.02V356.972H130.328V348.404H131.979V351.353H139.786V348.404H141.418V356.972ZM139.786 355.618V352.688H131.979V355.618H139.786Z" fill="white"/>
<path d="M157.182 355.452C157.182 356.249 156.774 356.898 155.977 357.399C155.179 357.9 154.104 358.178 152.731 358.252V360.255H159.241V361.572H144.608V360.255H151.081V358.233C149.727 358.141 148.651 357.863 147.854 357.362C147.075 356.88 146.685 356.231 146.685 355.452C146.685 354.561 147.168 353.857 148.113 353.356C149.059 352.855 150.339 352.596 151.952 352.596C153.566 352.596 154.808 352.855 155.754 353.356C156.7 353.857 157.182 354.561 157.182 355.452ZM158.517 351.872H145.313V350.556H158.517V351.872ZM155.439 355.452C155.439 354.951 155.105 354.561 154.437 354.283C153.77 354.005 152.935 353.875 151.971 353.875C151.007 353.875 150.153 354.005 149.467 354.283C148.781 354.561 148.447 354.951 148.447 355.452C148.447 355.952 148.781 356.323 149.467 356.583C150.153 356.843 150.988 356.991 151.971 356.991C152.954 356.991 153.788 356.861 154.456 356.583C155.124 356.323 155.457 355.934 155.457 355.452H155.439ZM154.808 349.35H149.004V348.015H154.808V349.35Z" fill="white"/>
<path d="M169.478 351.001H160.669V349.721H169.478V351.001ZM168.977 354.283C168.977 355.044 168.625 355.674 167.939 356.156C167.253 356.639 166.344 356.88 165.231 356.88C164.118 356.88 163.191 356.639 162.505 356.156C161.819 355.674 161.485 355.062 161.485 354.283C161.485 353.504 161.837 352.855 162.505 352.373C163.191 351.891 164.1 351.668 165.231 351.668C166.362 351.668 167.253 351.91 167.939 352.373C168.625 352.855 168.977 353.486 168.977 354.283ZM167.642 348.72H162.95V347.422H167.642V348.72ZM167.345 354.283C167.345 353.875 167.141 353.542 166.733 353.282C166.325 353.022 165.825 352.892 165.231 352.892C164.638 352.892 164.155 353.022 163.729 353.282C163.302 353.542 163.098 353.857 163.098 354.283C163.098 354.71 163.302 355.007 163.729 355.248C164.155 355.489 164.656 355.637 165.231 355.637C165.806 355.637 166.325 355.507 166.733 355.248C167.141 354.988 167.345 354.673 167.345 354.283ZM173.947 363.315H163.451V357.566H165.083V359.087H172.297V357.529H173.947V363.315ZM172.297 361.998V360.385H165.083V361.998H172.297ZM169.775 352.522V351.223H172.297V347.273H173.947V356.694H172.297V355.507H169.775V354.209H172.297V352.522H169.775Z" fill="white"/>
<path d="M187.616 360.385C186.058 360.57 184.222 360.719 182.089 360.848C179.419 360.96 177.712 361.015 176.989 361.015L176.711 359.643C178.12 359.643 179.623 359.606 181.217 359.532V358.048C180.29 357.918 179.548 357.622 178.992 357.139C178.436 356.657 178.157 356.064 178.157 355.359C178.157 354.543 178.528 353.894 179.252 353.393C179.975 352.892 180.921 352.651 182.071 352.651C183.22 352.651 184.203 352.892 184.927 353.393C185.65 353.894 186.002 354.543 186.002 355.378C186.002 356.101 185.724 356.694 185.149 357.195C184.574 357.677 183.814 357.992 182.868 358.085V359.458C184.815 359.365 186.355 359.254 187.486 359.105L187.634 360.403L187.616 360.385ZM186.948 351.798H177.286V350.482H186.948V351.798ZM184.333 349.369H179.641V348.052H184.333V349.369ZM183.665 356.379C184.092 356.101 184.296 355.767 184.296 355.359C184.296 354.951 184.092 354.617 183.665 354.339C183.239 354.061 182.72 353.931 182.071 353.931C181.421 353.931 180.921 354.061 180.513 354.339C180.105 354.617 179.901 354.951 179.901 355.359C179.901 355.767 180.105 356.101 180.513 356.379C180.921 356.657 181.44 356.787 182.071 356.787C182.701 356.787 183.239 356.657 183.665 356.379ZM190.101 363.482H188.469V347.273H190.101V363.482Z" fill="white"/>
<path d="M196.591 348.553C197.685 348.553 198.52 349.016 199.15 349.944C199.781 350.871 200.096 352.076 200.152 353.616H201.728V347.607H203.286V362.74H201.728V354.97H200.152C200.078 356.472 199.744 357.677 199.132 358.567C198.52 359.476 197.685 359.921 196.591 359.921C195.423 359.921 194.551 359.402 193.939 358.345C193.327 357.288 193.03 355.915 193.03 354.209C193.03 352.503 193.327 351.149 193.939 350.111C194.551 349.072 195.423 348.553 196.591 348.553ZM198.056 357.362C198.39 356.583 198.557 355.544 198.557 354.228C198.557 352.911 198.39 351.872 198.056 351.094C197.722 350.315 197.24 349.944 196.591 349.944C195.942 349.944 195.497 350.333 195.163 351.112C194.829 351.891 194.644 352.93 194.644 354.228C194.644 355.526 194.811 356.583 195.144 357.362C195.478 358.141 195.96 358.512 196.591 358.512C197.222 358.512 197.722 358.122 198.056 357.362ZM206.42 363.5H204.862V347.292H206.42V363.5Z" fill="white"/>
<path d="M218.53 358.4L217.547 359.624C216.75 359.105 215.971 358.382 215.192 357.473C214.413 356.564 213.875 355.656 213.597 354.766C213.319 355.748 212.818 356.713 212.095 357.659C211.353 358.623 210.537 359.402 209.628 360.014L208.59 358.808C209.832 358.03 210.852 356.972 211.613 355.656C212.373 354.339 212.763 352.93 212.763 351.464V348.664H214.45V351.39C214.45 352.855 214.84 354.191 215.6 355.433C216.36 356.676 217.343 357.659 218.549 358.4H218.53ZM222.147 363.482H220.496V354.358H216.88V352.967H220.496V347.273H222.147V363.482Z" fill="white"/>
<path d="M238.245 348.998C238.189 351.483 237.503 353.671 236.168 355.582C234.832 357.492 233.015 359.087 230.715 360.329L229.714 359.087C231.624 358.178 233.2 356.917 234.406 355.359C235.63 353.783 236.316 352.114 236.464 350.37H230.437V348.979H238.245V348.998ZM242.992 363.482H241.342V347.273H242.992V363.482Z" fill="white"/>
<path d="M253.841 363.5H252.19V358.233H245.736V356.88H260.369V358.233H253.841V363.5ZM258.57 355.044H247.498V347.885H249.149V350.185H256.938V347.885H258.57V355.044ZM256.938 353.727V351.52H249.149V353.727H256.938Z" fill="white"/>
<path d="M269.53 352.058C269.53 353.171 269.197 354.098 268.51 354.821C267.824 355.544 266.916 355.915 265.766 355.915C264.616 355.915 263.707 355.544 263.021 354.803C262.335 354.061 261.982 353.152 261.982 352.058C261.982 350.964 262.316 350.018 263.002 349.313C263.689 348.59 264.616 348.238 265.766 348.238C266.916 348.238 267.824 348.59 268.51 349.313C269.197 350.036 269.53 350.945 269.53 352.076V352.058ZM267.917 352.058C267.917 351.335 267.713 350.76 267.324 350.296C266.934 349.832 266.415 349.61 265.766 349.61C265.117 349.61 264.597 349.832 264.208 350.296C263.818 350.76 263.614 351.335 263.614 352.058C263.614 352.781 263.818 353.338 264.208 353.801C264.597 354.265 265.117 354.469 265.766 354.469C266.415 354.469 266.934 354.246 267.324 353.801C267.713 353.356 267.917 352.763 267.917 352.058ZM275.465 363.5H273.833V358.957H264.43V357.64H275.465V363.5ZM275.465 356.806H273.889V352.688H272.164V356.657H270.588V347.57H272.164V351.335H273.889V347.273H275.465V356.806Z" fill="white"/>
<path d="M283.087 361.405V360.44L285.943 357.473C286.981 356.379 287.742 355.47 288.224 354.766C288.706 354.042 288.929 353.282 288.929 352.484C288.929 351.687 288.725 351.056 288.317 350.667C287.909 350.278 287.278 350.092 286.407 350.092C285.535 350.092 284.626 350.426 283.643 351.075L283.254 349.814C284.367 349.072 285.516 348.701 286.722 348.701C287.983 348.701 288.947 349.016 289.633 349.666C290.32 350.315 290.653 351.186 290.653 352.318C290.653 353.319 290.375 354.228 289.819 355.062C289.263 355.897 288.391 356.917 287.185 358.159L285.331 360.032H290.895V361.405H283.087Z" fill="white"/>
<path d="M299.574 359.458H293.083V348.85H294.696V352.781H297.96V348.831H299.574V359.458ZM297.96 358.141V354.098H294.696V358.141H297.96ZM306.25 363.482H304.674V355.192H302.894V362.684H301.317V347.626H302.894V353.857H304.674V347.273H306.25V363.482Z" fill="white"/>
<path d="M323.238 361.423H308.605V360.088H315.059V357.529H310.367V352.317H319.788V349.944H310.33V348.608H321.42V353.653H311.999V356.193H321.865V357.529H316.71V360.088H323.238V361.423Z" fill="white"/>
<path d="M325.742 358.456L325.538 348.349H327.337L327.133 358.456H325.742ZM325.557 361.72V359.921H327.356V361.72H325.557Z" fill="white"/>
<path d="M119.492 137.041H90.8389L94.3254 112.82H122.088L121.235 120.851H130.192L131.324 109H141.431L138.946 139.544H128.43L129.525 127.972H120.474L119.51 137.059L119.492 137.041ZM138.111 150.486C137.833 153.899 135.608 156.606 131.416 158.572C127.206 160.556 121.624 161.558 114.688 161.558C107.752 161.558 102.448 160.556 98.6465 158.535C94.8632 156.532 93.2312 153.843 93.6949 150.468C94.1585 147.092 96.5138 144.311 100.724 142.363C104.915 140.435 110.367 139.452 117.118 139.452C123.868 139.452 129.117 140.416 132.863 142.326C136.646 144.255 138.408 146.963 138.111 150.468V150.486ZM110.071 129.938L111.313 119.552H103.413L102.059 129.938H110.071ZM116.339 146.592C112.76 146.592 109.959 146.925 107.919 147.593C105.879 148.261 104.785 149.225 104.637 150.505C104.488 151.655 105.379 152.563 107.27 153.249C109.18 153.936 111.925 154.269 115.486 154.269C119.047 154.269 121.847 153.936 123.868 153.249C125.871 152.563 126.928 151.655 127.04 150.505C127.151 149.281 126.279 148.316 124.425 147.63C122.57 146.944 119.863 146.592 116.339 146.592Z" fill="white"/>
<path d="M194.23 140.731H177.892L177.651 148.353H199.868V155.864H144.528L145.066 148.353H167.154L167.488 140.731H151.613L153.467 111.986H194.341L194.286 118.811H163.259L163.055 122.668H192.747L192.672 129.641H162.703L162.499 133.554H194.267L194.193 140.731H194.23Z" fill="white"/>
<path d="M240.464 141.455L241.428 148.539C237.014 149.188 231.043 149.707 223.495 150.097C215.947 150.486 209.511 150.635 204.189 150.56L203.095 142.957H209.715L208.195 122.334L218.265 121.871L219.062 142.771L223.606 142.586L223.977 121.871L233.88 122.501L232.73 142.104C234.418 141.992 236.996 141.77 240.445 141.436L240.464 141.455ZM236.773 119.719H204.671L204.634 112.932H236.439L236.755 119.719H236.773ZM255.003 162.077H244.247L241.373 109H251.406L255.003 162.077Z" fill="white"/>
<path d="M265.463 144.552C262.18 140.843 260.326 136.151 259.899 130.513C259.473 124.875 260.567 120.461 263.182 116.975C265.778 113.525 269.45 111.819 274.235 111.819C279.02 111.819 283.081 113.525 286.308 116.956C289.553 120.424 291.519 124.931 292.187 130.513C292.855 136.151 291.946 140.843 289.442 144.552C286.901 148.298 283.081 150.189 278 150.189C272.918 150.189 268.764 148.298 265.463 144.552ZM282.191 130.513C281.82 126.952 280.967 124.281 279.65 122.464C278.333 120.647 276.794 119.756 275.032 119.756C273.271 119.756 271.991 120.647 271.064 122.464C270.136 124.281 269.84 126.952 270.155 130.513C270.47 134.073 271.286 136.911 272.566 138.784C273.845 140.676 275.385 141.621 277.165 141.621C278.945 141.621 280.373 140.676 281.338 138.784C282.302 136.892 282.58 134.129 282.191 130.513ZM304.186 109L306.782 127.62H313.996L315.109 135.093H307.821L311.567 162.077H300.811L294.153 109H304.186Z" fill="white"/>
<path d="M74.0371 226.856L81.2513 178.342H114.819L113.817 187.633H93.4727L92.2858 196.646H108.346L107.271 206.16H91.0247L89.6338 216.638H111.369L110.275 226.838H74L74.0371 226.856Z" fill="#5A5CEF"/>
<path d="M132.456 226.856L119.789 178.342H133.68L141.673 210.499H142.044L154.506 178.342H166.95L147.329 226.856H132.456Z" fill="#5A5CEF"/>
<path d="M171.03 226.856L172.755 178.342H206.322L206.378 187.633H186.034L185.867 196.646H201.927V206.16H185.7L185.496 216.638H207.231L207.305 226.838H171.03V226.856Z" fill="#5A5CEF"/>
<path d="M215.576 226.856L214.778 178.342H229.466L246.602 204.787H246.825L245.378 178.342H256.951L260.289 226.856H246.565L227.204 195.941H226.907L227.853 226.856H215.576Z" fill="#5A5CEF"/>
<path d="M280.596 226.856L276.98 187.651H264.035L263.33 178.36H302.535L303.704 187.651H290.833L295.117 226.856H280.633H280.596Z" fill="#5A5CEF"/>
<path d="M313.57 209.683L307.153 175.689H321.137L324.382 209.683H313.57ZM315.332 228.544L313.83 217.25H326.274L327.943 228.544H315.35H315.332Z" fill="#5A5CEF"/>
<path d="M355.791 264H43.5967C34.9829 264 28 270.983 28 279.597V282.49C28 291.104 34.9829 298.087 43.5967 298.087H355.791C364.405 298.087 371.388 291.104 371.388 282.49V279.597C371.388 270.983 364.405 264 355.791 264Z" fill="#5A5CEF"/>
<path d="M64.6091 286.051H56.2451V272.698H64.6091V286.051ZM62.5506 284.344V274.423H58.3037V284.344H62.5506ZM73.4368 291.67H71.3782V280.58H69.0415V290.631H66.9829V270.88H69.0415V278.799H71.3782V270.417H73.4368V291.67Z" fill="white"/>
<path d="M78.6848 272.494C79.7233 271.585 81.0215 271.121 82.5608 271.121C84.1 271.121 85.3982 271.567 86.4182 272.475C87.4568 273.384 87.976 274.534 87.976 275.943C87.976 277.353 87.4568 278.465 86.4182 279.356C85.3797 280.227 84.1 280.672 82.5608 280.672C81.0215 280.672 79.7233 280.246 78.6848 279.374C77.6462 278.521 77.1084 277.371 77.1084 275.962C77.1084 274.552 77.6277 273.384 78.6848 272.475V272.494ZM82.5608 272.976C81.6149 272.976 80.836 273.254 80.1869 273.829C79.5379 274.404 79.2226 275.109 79.2226 275.962C79.2226 276.815 79.5379 277.52 80.1684 278.057C80.7989 278.595 81.5964 278.873 82.5608 278.873C83.5251 278.873 84.3411 278.595 84.9531 278.039C85.5651 277.483 85.8619 276.796 85.8619 275.943C85.8619 275.053 85.5651 274.33 84.9717 273.773C84.3782 273.217 83.5622 272.939 82.5608 272.939V272.976ZM94.7266 291.521H80.1684V286.051H91.8149V284.085H80.0942V282.341H93.9848V287.664H82.3197V289.76H94.7451V291.54L94.7266 291.521ZM93.9662 281.229H91.7964V270.417H93.9662V281.229Z" fill="white"/>
<path d="M106.689 286.051H98.3252V272.698H106.689V286.051ZM104.631 284.344V274.423H100.384V284.344H104.631ZM115.517 291.67H113.458V280.58H111.122V290.631H109.063V270.88H111.122V278.799H113.458V270.417H115.517V291.67Z" fill="white"/>
<path d="M120.746 272.494C121.785 271.585 123.083 271.121 124.622 271.121C126.162 271.121 127.46 271.567 128.48 272.475C129.518 273.384 130.038 274.534 130.038 275.943C130.038 277.353 129.518 278.465 128.48 279.356C127.441 280.227 126.162 280.672 124.622 280.672C123.083 280.672 121.785 280.246 120.746 279.374C119.708 278.521 119.17 277.371 119.17 275.962C119.17 274.552 119.689 273.384 120.746 272.475V272.494ZM124.622 272.976C123.676 272.976 122.898 273.254 122.248 273.829C121.599 274.404 121.284 275.109 121.284 275.962C121.284 276.815 121.599 277.52 122.23 278.057C122.86 278.595 123.658 278.873 124.622 278.873C125.587 278.873 126.403 278.595 127.015 278.039C127.627 277.483 127.923 276.796 127.923 275.943C127.923 275.053 127.627 274.33 127.033 273.773C126.44 273.217 125.624 272.939 124.622 272.939V272.976ZM136.788 291.521H122.23V286.051H133.876V284.085H122.156V282.341H136.046V287.664H124.381V289.76H136.807V291.54L136.788 291.521ZM136.028 281.229H133.858V270.417H136.028V281.229Z" fill="white"/>
<path d="M149.213 289.036V274.738L146.246 275.387V274.144L150.178 272.327H151.346V289.036H149.213Z" fill="white"/>
<path d="M161.731 289.24C159.895 289.24 158.43 288.591 157.318 287.312C156.205 286.013 155.648 284.048 155.648 281.396V280.097C155.648 277.39 156.223 275.424 157.355 274.181C158.486 272.939 159.951 272.327 161.75 272.327C163.549 272.327 164.94 272.939 166.034 274.163C167.128 275.387 167.666 277.334 167.666 280.005V281.414C167.666 284.066 167.128 286.051 166.034 287.33C164.94 288.61 163.493 289.259 161.713 289.259L161.731 289.24ZM161.731 287.497C162.974 287.497 163.92 287.033 164.532 286.106C165.162 285.179 165.459 283.714 165.459 281.674V280.005C165.459 276.055 164.216 274.07 161.731 274.07C159.246 274.07 157.911 275.999 157.911 279.838V281.563C157.911 285.513 159.172 287.497 161.713 287.497H161.731Z" fill="white"/>
<path d="M181.093 281.748H171.301V272.067H181.093V281.748ZM178.96 280.042V273.773H173.433V280.042H178.96ZM186.007 284.493C187.287 285.235 187.918 286.255 187.918 287.534C187.918 288.814 187.287 289.834 186.026 290.557C184.765 291.28 182.984 291.67 180.685 291.67C178.385 291.67 176.642 291.299 175.381 290.557C174.12 289.815 173.471 288.814 173.471 287.534C173.471 286.255 174.101 285.235 175.381 284.493C176.66 283.751 178.422 283.38 180.685 283.38C182.947 283.38 184.746 283.751 186.026 284.493H186.007ZM180.666 285.142C179.108 285.142 177.884 285.346 177.013 285.772C176.123 286.199 175.696 286.774 175.696 287.516C175.696 288.257 176.141 288.832 177.013 289.259C177.903 289.667 179.108 289.871 180.666 289.871C182.224 289.871 183.522 289.667 184.394 289.259C185.284 288.851 185.711 288.257 185.711 287.516C185.711 286.774 185.266 286.18 184.394 285.772C183.504 285.346 182.261 285.142 180.666 285.142ZM182.168 275.48V273.755H185.618V270.398H187.788V283.436H185.618V279.856H182.168V278.132H185.618V275.48H182.168Z" fill="white"/>
<path d="M196.43 272.086C197.858 272.086 198.971 272.698 199.768 273.903C200.566 275.109 201.011 276.704 201.085 278.707H203.144V270.825H205.184V290.668H203.144V280.487H201.085C200.992 282.453 200.547 284.029 199.75 285.216C198.952 286.403 197.84 286.996 196.412 286.996C194.891 286.996 193.723 286.31 192.925 284.938C192.128 283.565 191.738 281.748 191.738 279.523C191.738 277.297 192.128 275.517 192.925 274.144C193.723 272.791 194.872 272.104 196.412 272.104L196.43 272.086ZM198.34 283.621C198.786 282.601 198.99 281.247 198.99 279.523C198.99 277.798 198.767 276.444 198.34 275.424C197.895 274.404 197.265 273.903 196.43 273.903C195.596 273.903 194.984 274.423 194.539 275.443C194.094 276.463 193.871 277.835 193.871 279.523C193.871 281.21 194.094 282.601 194.52 283.621C194.947 284.641 195.596 285.142 196.412 285.142C197.228 285.142 197.895 284.641 198.322 283.621H198.34ZM209.301 291.651H207.261V270.398H209.301V291.651Z" fill="white"/>
<path d="M221.337 272.957C221.3 276.11 220.651 278.836 219.371 281.173C218.092 283.51 216.144 285.531 213.511 287.293L212.046 285.717C214.179 284.474 215.866 282.879 217.072 280.969C218.296 279.04 219 276.982 219.186 274.756H212.955V272.976H221.319L221.337 272.957ZM226.159 290.613H224.119V280.765H221.003V279.022H224.119V270.899H226.159V290.613ZM230.369 291.651H228.31V270.398H230.369V291.651Z" fill="white"/>
<path d="M241.514 284.864C240.605 283.473 240.16 281.674 240.16 279.43C240.16 277.186 240.605 275.387 241.514 273.996C242.423 272.605 243.777 271.919 245.557 271.919C247.337 271.919 248.673 272.605 249.581 273.996C250.471 275.387 250.935 277.204 250.935 279.448C250.935 281.692 250.49 283.473 249.581 284.864C248.673 286.255 247.337 286.941 245.557 286.941C243.777 286.941 242.423 286.255 241.514 284.864ZM248.802 279.448C248.802 277.742 248.524 276.37 247.949 275.331C247.374 274.293 246.577 273.755 245.538 273.755C244.5 273.755 243.702 274.274 243.146 275.313C242.59 276.351 242.311 277.724 242.311 279.448C242.311 281.173 242.59 282.49 243.146 283.528C243.702 284.567 244.5 285.086 245.538 285.086C246.577 285.086 247.374 284.567 247.949 283.528C248.524 282.49 248.802 281.136 248.802 279.448ZM259.651 280.617H256.239V291.651H254.069V270.398H256.239V278.836H259.651V280.617Z" fill="white"/>
<path d="M269.981 286.069H261.524V272.716H269.981V278.28H272.652V270.88H274.692V290.594H272.652V280.023H269.981V286.051V286.069ZM267.923 284.363V274.441H263.564V284.363H267.923ZM278.809 291.651H276.732V270.398H278.809V291.651Z" fill="white"/>
<path d="M295.407 284.177L295.629 285.958C293.052 286.384 289.713 286.607 285.633 286.663H282.981V278.299H290.937V274.089H282.889V272.345H293.07V280.023H285.114V284.845H285.745C289.862 284.845 293.089 284.623 295.388 284.196L295.407 284.177ZM297.261 270.417H299.431V291.67H297.261V270.417Z" fill="white"/>
<path d="M313.971 272.642C313.971 279.56 310.707 284.66 304.253 287.905L302.918 286.255C306.46 284.641 308.982 282.36 310.447 279.448L303.641 280.172L303.252 278.28L311.152 277.668C311.467 276.648 311.671 275.572 311.708 274.46H304.105V272.642H313.971ZM319.349 270.398V278.966H322.725V280.747H319.349V291.67H317.216V270.417H319.349V270.398Z" fill="white"/>
<path d="M340.993 282.286H334.594V287.145H343.144V288.888H323.968V287.145H332.424V282.286H326.23V272.197H328.363V280.561H340.993V282.286Z" fill="white"/>
<path d="M359.845 88.5533C359.845 88.5533 354.893 71.8439 356.229 63.313C356.729 60.0675 357.768 56.6181 360.42 54.6523C360.846 54.2999 361.384 54.0773 361.941 54.0032C362.868 53.9475 363.702 54.6337 364.277 55.357C367.393 59.2144 366.781 64.7595 366.002 69.637C367.894 66.0206 370.193 63.4613 373.235 60.7537C374.477 59.641 375.979 58.5653 377.649 58.6581C380.078 58.8064 381.691 61.4028 381.914 63.8323C382.192 66.8366 381.042 69.8224 379.318 72.289C377.593 74.7555 375.33 76.777 373.068 78.7799C368.932 82.4704 359.808 88.5163 359.808 88.5163L359.845 88.5533Z" fill="#F47458"/>
<path d="M47.2355 84.9381C47.2355 84.9381 39.3908 79.6155 36.9984 75.5726C36.0897 74.0333 35.3293 72.2159 35.7744 70.4912C35.8301 70.1944 35.9784 69.9163 36.1824 69.6937C36.609 69.397 37.1468 69.3043 37.629 69.4526C40.2624 69.9904 41.9315 72.5497 43.2853 74.8679C42.8773 72.8093 42.8773 70.6952 43.2668 68.6366C43.4152 67.7279 43.6748 66.7635 44.3981 66.2257C45.4737 65.4468 47.0501 65.9846 47.9773 66.9304C49.1272 68.0988 49.6835 69.7494 49.8133 71.3814C49.869 73.0134 49.7392 74.6639 49.4239 76.2773C48.9602 79.2632 47.217 84.9566 47.217 84.9566L47.2355 84.9381Z" fill="#87D9D7"/>
</g>
<defs>
<clipPath id="clip0_628_15490">
<rect width="408" height="408" fill="white"/>
</clipPath>
</defs>
</svg>
