<svg width="49" height="80" viewBox="0 0 49 80" fill="none" xmlns="http://www.w3.org/2000/svg">
<path d="M24.5107 71.4118H23.6522L26.7214 69.2168C29.1897 67.4907 30.7565 64.7416 30.9711 61.7581C31.1857 58.5402 29.7906 56.3665 28.1594 54.9174C26.3136 53.3191 23.9527 52.4667 21.5059 52.488H10.0876C0.837056 64.2515 0 78.9558 0 78.9558H33.2462C32.6237 74.6297 28.9106 71.4118 24.5107 71.4118Z" fill="#A15E33"/>
<path d="M17.1919 19.5844L11.6759 21.0975C11.8046 22.6745 12.6632 24.4219 14.0583 25.8924C15.5177 25.0613 17.3636 23.2712 17.1919 19.5631V19.5844Z" fill="black"/>
<path d="M48.9785 77.5493C48.8712 74.3953 46.2527 71.8807 43.0547 71.8807L45.4157 19.1156L39.449 0L37.5817 9.12094L36.1007 9.61108C34.2764 10.2078 32.6452 11.3372 31.4647 12.8503L31.0999 13.2978C29.5116 15.301 27.3009 16.7714 24.8112 17.4534L17.1704 19.5631C17.3421 23.2712 15.4963 25.0613 14.0368 25.8924C16.0972 28.0448 18.9733 29.2595 21.9566 29.2381C27.9019 29.2381 30.735 23.9957 30.735 23.9957C38.6978 33.9265 25.1332 41.1934 25.1332 41.1934C18.5226 43.8146 13.6505 47.9275 10.0447 52.5093H21.463C23.9098 52.5093 26.2922 53.3617 28.138 54.96C29.7692 56.3879 31.1643 58.5828 30.9496 61.7794C30.7135 64.7629 29.1682 67.512 26.7 69.2381L23.6307 71.4331H24.4893C28.8892 71.4331 32.6023 74.651 33.2247 78.9771H49L48.9571 77.5706L48.9785 77.5493Z" fill="#E29058"/>
<path d="M33.0101 16.0256C33.0101 16.4518 32.6452 16.8141 32.2159 16.8141C31.7867 16.8141 31.4218 16.4518 31.4218 16.0256C31.4218 15.5994 31.7867 15.2371 32.2159 15.2371C32.6452 15.2371 33.0101 15.5994 33.0101 16.0256Z" fill="black"/>
<path d="M33.0101 21.3532L30.7565 23.9957C30.7565 23.9957 31.7652 25.0826 32.6881 27.2563L33.0315 21.3319L33.0101 21.3532Z" fill="#A15E33"/>
<path d="M32.9886 32.3282L32.7954 32.9675C32.7954 32.9675 38.6978 34.8215 44.7933 32.9675L44.8576 31.4971L32.9886 32.3282Z" fill="#A15E33"/>
<path d="M38.3973 80C37.7963 80 37.3241 79.5312 37.3241 78.9345V52.5093C37.3241 51.9126 37.7963 51.4438 38.3973 51.4438C38.9982 51.4438 39.4704 51.9126 39.4704 52.5093V78.9345C39.4704 79.5312 38.9982 80 38.3973 80Z" fill="#A15E33"/>
</svg>
