<svg width="190" height="200" viewBox="0 0 190 200" fill="none" xmlns="http://www.w3.org/2000/svg">
<g clip-path="url(#clip0_978_367)">
<rect width="190" height="200" rx="40" fill="white"/>
<rect x="4" y="4" width="182" height="437" rx="36" stroke="#CFCFCF" stroke-width="8"/>
<line x1="60" y1="10" x2="138" y2="10" stroke="#CFCFCF" stroke-width="10" stroke-linecap="round"/>
<line x1="81.5" y1="8.5" x2="116.5" y2="8.5" stroke="#AAAAAA" stroke-width="5" stroke-linecap="round"/>
<rect x="18" y="26" width="153" height="134" rx="10" fill="#F5CF1F"/>
<g clip-path="url(#clip1_978_367)">
<path d="M171 31.6125H18V154.387H171V31.6125Z" fill="#F5CF1F"/>
<path d="M147.201 86.9838L154.636 86.9057C154.831 86.9057 154.99 86.7773 154.99 86.6155V85.5217C154.99 85.3375 154.789 85.2036 154.566 85.2371L147.132 86.409C146.701 86.476 146.77 86.9838 147.208 86.9783L147.201 86.9838Z" fill="white"/>
<path d="M146.298 85.053L151.396 79.3049C151.521 79.1598 151.459 78.9589 151.264 78.8808L149.261 78.0939C149.073 78.0214 148.844 78.0939 148.774 78.2502L145.679 84.7907C145.533 85.1033 146.062 85.3321 146.298 85.0586V85.053Z" fill="#F36571"/>
<path d="M143.279 85.7115L143.426 80.9177C143.426 80.8005 143.3 80.7056 143.154 80.7224L141.652 80.8898C141.513 80.9065 141.416 81.0126 141.45 81.1242L142.807 85.745C142.869 85.9682 143.279 85.9347 143.279 85.7059V85.7115Z" fill="#87D9D7"/>
<path d="M46.5546 52.7131C46.5546 54.0078 46.1929 55.1295 45.4557 56.0782C44.7116 57.0269 43.6615 57.7413 42.2914 58.2268L41.4082 57.2223C42.3888 56.8763 43.1747 56.3963 43.7658 55.7992C44.3569 55.1965 44.6977 54.5268 44.7881 53.7846H41.9437V52.7131H46.5476H46.5546ZM49.2877 59.4322H47.6603V51.9541H49.2877V59.4322V59.4322Z" fill="white"/>
<path d="M55.372 59.4323H53.7586V57.2558H50.3926V56.2513H58.8215V57.2558H55.372V59.4323V59.4323ZM57.9313 55.6597H51.2828V52.2946H52.8962V53.0312H56.29V52.2778H57.9243V55.6597H57.9313ZM56.297 54.6273V54.0357H52.9032V54.6273H56.297Z" fill="white"/>
<path d="M64.6856 54.7166H59.3027V53.712H64.6856V54.7166ZM64.3656 56.6028C64.3656 57.0884 64.1431 57.4846 63.705 57.7804C63.2599 58.0817 62.7174 58.2268 62.0567 58.2268C61.3961 58.2268 60.8675 58.0761 60.4363 57.7804C60.0051 57.479 59.7896 57.0884 59.7896 56.6028C59.7896 56.1173 60.0051 55.7323 60.4433 55.4309C60.8814 55.1295 61.4169 54.9844 62.0567 54.9844C62.6966 54.9844 63.2529 55.1351 63.698 55.4309C64.1431 55.7267 64.3656 56.1229 64.3656 56.6028ZM63.4685 53.3326H60.6936V52.3169H63.4685V53.3326ZM62.6826 57.0716C62.8496 56.9544 62.933 56.7982 62.933 56.6084C62.933 56.4187 62.8496 56.2568 62.6826 56.1396C62.5157 56.0225 62.3071 55.9611 62.0637 55.9611C61.8203 55.9611 61.6256 56.0225 61.4656 56.1396C61.3056 56.2568 61.2291 56.4131 61.2291 56.6084C61.2291 56.8037 61.3056 56.96 61.4656 57.0716C61.6256 57.1888 61.8272 57.2446 62.0637 57.2446C62.3001 57.2446 62.5227 57.1888 62.6826 57.0716ZM67.8916 55.9499H66.7511V59.4378H65.1376V51.9597H66.7511V54.884H67.8916V55.9499Z" fill="white"/>
<path d="M76.7297 58.595H68.3008V57.5793H71.1243V55.0624H72.7517V57.5793H76.7297V58.595ZM69.1701 52.5288H75.9995C76.0134 52.9027 76.0134 53.2208 75.9995 53.4943C75.9925 54.0635 75.9438 54.6829 75.8465 55.347C75.7491 56.0111 75.6448 56.519 75.5335 56.8762L74.0452 56.7534C74.1495 56.4241 74.24 56.0056 74.3095 55.481C74.3791 54.962 74.4208 54.5546 74.4208 54.27V53.5612H69.1701V52.5288V52.5288Z" fill="white"/>
<path d="M80.631 57.0772C80.165 56.5637 79.9355 55.9108 79.9355 55.1128C79.9355 54.3147 80.165 53.6618 80.631 53.1484C81.097 52.6349 81.709 52.3782 82.4879 52.3782C83.2668 52.3782 83.8857 52.6349 84.3378 53.1428C84.7898 53.6506 85.0193 54.3091 85.0193 55.1128C85.0193 55.9164 84.7898 56.5637 84.3378 57.0772C83.8788 57.5906 83.2668 57.8473 82.4879 57.8473C81.709 57.8473 81.097 57.5906 80.631 57.0772V57.0772ZM83.4476 55.1128C83.4476 54.6049 83.3572 54.2199 83.1764 53.952C82.9955 53.6897 82.766 53.5558 82.4809 53.5558C82.1958 53.5558 81.9802 53.6897 81.8063 53.952C81.6325 54.2143 81.549 54.5993 81.549 55.1128C81.549 55.6262 81.6325 56.0168 81.8063 56.2791C81.9802 56.5414 82.2027 56.6754 82.4809 56.6754C82.7591 56.6754 82.9955 56.5414 83.1764 56.2791C83.3572 56.0168 83.4476 55.6262 83.4476 55.1128ZM87.3839 51.9541V54.6942H88.5244V55.7601H87.3839V59.4322H85.7565V51.9541H87.3839V51.9541Z" fill="white"/>
<path d="M92.9625 57.6296H89.207V52.6628H92.9625V54.5491H93.5536V52.0825H95.0419V59.1364H93.5536V55.5536H92.9625V57.6296ZM91.4394 56.6754V53.6283H90.6953V56.6754H91.4394ZM97.01 59.4322H95.48V51.9541H97.01V59.4322Z" fill="white"/>
<path d="M103.624 56.5358L103.756 57.5738C102.678 57.7301 101.357 57.8138 99.7779 57.825C99.0059 57.825 98.533 57.825 98.373 57.8194V54.6049H101.155V53.6562H98.373V52.6015H102.796V55.6318H100.014V56.7423C101.322 56.7758 102.532 56.7088 103.624 56.5358V56.5358ZM105.738 59.4322H104.104V51.9541H105.738V59.4322Z" fill="white"/>
<path d="M111.761 52.6406C111.761 53.2879 111.692 53.8851 111.559 54.4208C111.427 54.9621 111.205 55.4811 110.899 55.989C110.593 56.4912 110.162 56.9488 109.612 57.3562C109.063 57.7636 108.402 58.1096 107.63 58.3998L106.754 57.3953C108.02 56.9321 108.924 56.3015 109.466 55.509L107.032 55.6988L106.858 54.6105L109.932 54.4878C109.995 54.2645 110.029 54.0078 110.043 53.7065H107.345V52.6406H111.768H111.761ZM114.223 51.9597V54.7166H115.384V55.7825H114.223V59.4378H112.631V51.9597H114.223V51.9597Z" fill="white"/>
<path d="M124.224 58.6341H115.795V57.6352H119.203V56.067H116.685V52.4954H118.333V55.0625H123.375V56.067H120.816V57.6352H124.224V58.6341Z" fill="white"/>
<path d="M132.289 55.9053H127.686V52.3057H129.278V53.1763H130.655V52.3057H132.289V55.9053V55.9053ZM135.002 59.3597H128.659V56.4745H134.918V57.5069H130.259V58.3273H135.002V59.3597ZM130.655 54.9007V54.1641H129.278V54.9007H130.655ZM136.01 54.644H134.863V56.162H133.235V51.9597H134.863V53.5893H136.01V54.644Z" fill="white"/>
<path d="M141.734 53.7009H140.016C140.037 54.4989 140.225 55.1518 140.58 55.6597C140.934 56.1675 141.47 56.5637 142.186 56.8539L141.303 57.8752C140.921 57.7189 140.51 57.4566 140.072 57.0883C139.634 56.72 139.342 56.3684 139.203 56.0392C139.084 56.4075 138.82 56.7814 138.403 57.1776C137.986 57.5738 137.561 57.8529 137.123 58.0259L136.191 57.0437C136.977 56.6921 137.534 56.2568 137.861 55.7378C138.187 55.2244 138.354 54.5435 138.375 53.7009H136.574V52.6461H141.727V53.7009H141.734ZM144.975 55.7713H143.827V59.4322H142.221V51.9541H143.827V54.711H144.975V55.7657V55.7713Z" fill="white"/>
<path d="M145.845 56.4911L145.574 52.4897H147.584L147.334 56.4911H145.845ZM145.741 58.5783V57.3394H147.438V58.5783H145.741Z" fill="white"/>
<path d="M46.9794 132.952H44.1211V130.753H46.9794V132.952ZM46.3674 132.556V131.144H44.7331V132.556H46.3674ZM48.3773 133.588C48.7389 133.761 48.9197 133.99 48.9197 134.286C48.9197 134.582 48.7389 134.81 48.3773 134.983C48.0156 135.156 47.508 135.24 46.8542 135.24C46.2005 135.24 45.6928 135.156 45.3312 134.983C44.9695 134.81 44.7818 134.582 44.7818 134.286C44.7818 133.99 44.9626 133.761 45.3312 133.588C45.6998 133.415 46.2075 133.331 46.8542 133.331C47.501 133.331 48.0156 133.415 48.3773 133.588ZM46.8542 133.744C46.4022 133.744 46.0545 133.795 45.8041 133.89C45.5537 133.984 45.4216 134.118 45.4216 134.286C45.4216 134.453 45.5468 134.587 45.8041 134.682C46.0545 134.777 46.4091 134.827 46.8542 134.827C47.2993 134.827 47.661 134.777 47.9113 134.682C48.1617 134.587 48.2938 134.453 48.2938 134.286C48.2938 134.118 48.1686 133.984 47.9113 133.89C47.654 133.795 47.3063 133.744 46.8542 133.744ZM48.266 131.992H47.2785V131.585H48.266V130.357H48.885V133.354H48.266V131.992V131.992Z" fill="white"/>
<path d="M54.5458 132.21H51.1728V132.919H54.8101V133.315H52.9532V134.214H55.4012V134.615H49.9141V134.214H52.3342V133.315H50.5608V130.776H54.7475V131.183H51.1728V131.819H54.5458V132.21V132.21Z" fill="white"/>
<path d="M59.7749 133.482L59.8236 133.878C59.3437 133.934 58.7248 133.979 57.9668 134.007C57.1392 134.04 56.4854 134.057 55.9917 134.057L55.9082 133.638C56.2907 133.638 56.5828 133.638 56.7775 133.638L56.5758 131.652L57.1878 131.596L57.3478 133.627L57.9737 133.605C58.0154 133.605 58.0919 133.605 58.2032 133.594L58.3632 131.59L58.9682 131.646L58.7457 133.571C59.1977 133.549 59.5385 133.521 59.7749 133.488V133.482ZM59.4898 131.244H56.0821V130.842H59.4898V131.244ZM60.9016 135.234H60.2896V130.357H60.9016V135.234Z" fill="white"/>
<path d="M62.4246 133.672C62.1673 133.354 62.0352 132.941 62.0352 132.427C62.0352 131.914 62.1673 131.495 62.4246 131.183C62.6819 130.865 63.0714 130.709 63.5791 130.709C64.0867 130.709 64.4762 130.87 64.7266 131.183C64.9839 131.501 65.116 131.92 65.116 132.439C65.116 132.958 64.9839 133.359 64.7266 133.677C64.4692 133.996 64.0867 134.152 63.5791 134.152C63.0714 134.152 62.6819 133.996 62.4246 133.677V133.672ZM64.511 132.433C64.511 132.042 64.4275 131.724 64.2676 131.484C64.1076 131.244 63.8781 131.121 63.5791 131.121C63.28 131.121 63.0575 131.239 62.8975 131.479C62.7376 131.719 62.6541 132.031 62.6541 132.427C62.6541 132.824 62.7376 133.125 62.8975 133.365C63.0575 133.605 63.287 133.722 63.5791 133.722C63.8712 133.722 64.1076 133.605 64.2676 133.365C64.4275 133.125 64.511 132.812 64.511 132.427V132.433ZM67.6127 132.701H66.6391V135.234H66.0201V130.357H66.6391V132.293H67.6127V132.701V132.701Z" fill="white"/>
<path d="M72.8847 130.876C72.8638 131.635 72.6204 132.299 72.1545 132.874C71.6885 133.449 71.0278 133.917 70.1724 134.291L69.7969 133.917C70.4993 133.644 71.0696 133.276 71.4938 132.801C71.925 132.327 72.1614 131.825 72.2171 131.294H70.0542V130.876H72.8777H72.8847ZM74.4842 130.357V132.355H75.4579V132.768H74.4842V135.234H73.8722V130.357H74.4842Z" fill="white"/>
<path d="M76.4247 130.909C76.7237 130.692 77.0923 130.586 77.5305 130.586C77.9686 130.586 78.3372 130.692 78.6362 130.904C78.9353 131.116 79.0813 131.395 79.0813 131.741C79.0813 132.087 78.9353 132.36 78.6362 132.567C78.3442 132.773 77.9686 132.879 77.5305 132.879C77.0923 132.879 76.7168 132.773 76.4177 132.567C76.1187 132.36 75.9727 132.087 75.9727 131.747C75.9727 131.406 76.1257 131.133 76.4247 130.909V130.909ZM77.5305 131.015C77.2592 131.015 77.0367 131.082 76.8628 131.211C76.689 131.339 76.5986 131.518 76.5986 131.735C76.5986 131.953 76.689 132.126 76.8628 132.254C77.0437 132.383 77.2662 132.45 77.5305 132.45C77.7947 132.45 78.0242 132.388 78.1981 132.26C78.372 132.132 78.4624 131.959 78.4624 131.741C78.4624 131.523 78.3789 131.345 78.1981 131.216C78.0173 131.088 77.8017 131.021 77.5305 131.021V131.015ZM80.7922 135.173H76.842V133.237H77.454V133.811H80.1732V133.231H80.7922V135.173ZM80.1732 134.777V134.202H77.454V134.777H80.1732ZM80.7852 132.969H80.1662V130.357H80.7852V132.969Z" fill="white"/>
<path d="M85.3896 131.914H81.7871V131.518H85.3896V131.914ZM85.0488 133.22C85.0488 133.516 84.9167 133.756 84.6524 133.951C84.3881 134.146 84.0404 134.241 83.6162 134.241C83.1919 134.241 82.8442 134.146 82.573 133.951C82.3087 133.761 82.1696 133.516 82.1696 133.22C82.1696 132.924 82.3017 132.679 82.573 132.483C82.8442 132.288 83.185 132.188 83.6092 132.188C84.0334 132.188 84.3812 132.282 84.6454 132.478C84.9097 132.673 85.0418 132.919 85.0418 133.214L85.0488 133.22ZM84.5063 131.077H82.6912V130.675H84.5063V131.077ZM84.2142 133.655C84.3672 133.544 84.4368 133.399 84.4368 133.214C84.4368 133.03 84.3603 132.891 84.2003 132.774C84.0404 132.656 83.8457 132.601 83.6092 132.601C83.3727 132.601 83.178 132.656 83.025 132.774C82.872 132.891 82.7886 133.036 82.7886 133.22C82.7886 133.404 82.8651 133.544 83.0181 133.661C83.1711 133.773 83.3658 133.834 83.6092 133.834C83.8526 133.834 84.0612 133.778 84.2142 133.661V133.655ZM87.4759 132.796H86.5092V135.229H85.8903V130.352H86.5092V132.383H87.4759V132.796Z" fill="white"/>
<path d="M93.325 134.526H87.8379V134.118H89.9243V132.478H90.5432V134.118H93.325V134.526ZM92.6157 130.809V131.557C92.6018 132.349 92.5183 133.013 92.3583 133.549C92.101 133.51 91.8993 133.488 91.7672 133.471C91.9133 133.019 91.9828 132.461 91.9828 131.797V131.211H88.4012V130.809H92.6157Z" fill="white"/>
<path d="M100.676 133.237H98.7149V134.214H101.163V134.615H95.6758V134.214H98.096V133.237H96.1278V132.835H97.1432L96.9832 131.563L97.6091 131.49L97.7274 132.835H99.1044L99.3408 131.501L99.9389 131.585L99.6816 132.835H100.676V133.237V133.237ZM100.683 131.25H96.1209V130.854H100.683V131.25Z" fill="white"/>
<path d="M102.295 131.032C102.601 130.798 102.99 130.686 103.456 130.686C103.922 130.686 104.312 130.803 104.618 131.032C104.924 131.261 105.084 131.551 105.084 131.903C105.084 132.254 104.931 132.539 104.625 132.762C104.319 132.985 103.929 133.091 103.456 133.091C102.983 133.091 102.601 132.98 102.295 132.762C101.989 132.545 101.836 132.254 101.836 131.914C101.836 131.574 101.989 131.272 102.295 131.038V131.032ZM103.456 131.11C103.171 131.11 102.942 131.183 102.761 131.334C102.58 131.484 102.483 131.668 102.483 131.897C102.483 132.126 102.573 132.305 102.761 132.455C102.949 132.606 103.178 132.678 103.456 132.678C103.755 132.678 103.992 132.606 104.166 132.461C104.34 132.316 104.43 132.132 104.43 131.903C104.43 131.674 104.34 131.479 104.166 131.334C103.992 131.188 103.755 131.11 103.456 131.11ZM106.822 135.084H102.684V133.566H103.303V134.688H106.822V135.084ZM106.683 133.901H106.064V130.357H106.683V133.901Z" fill="white"/>
<path d="M113.194 134.615H107.707V134.213H113.194V134.615ZM112.339 132.266H108.98V132.958H112.533V133.365H108.368V130.82H112.478V131.222H108.98V131.875H112.339V132.266V132.266Z" fill="white"/>
<path d="M119.216 134.615H113.729V134.213H116.149V133.443H114.389V131.875H117.922V131.161H114.375V130.759H118.534V132.277H115.001V133.041H118.701V133.443H116.768V134.213H119.216V134.615Z" fill="white"/>
<path d="M124.78 130.876C124.759 131.624 124.502 132.282 124.001 132.857C123.501 133.432 122.819 133.912 121.95 134.286L121.574 133.912C122.291 133.638 122.882 133.259 123.341 132.79C123.8 132.316 124.057 131.813 124.106 131.289H121.845V130.87H124.773L124.78 130.876ZM126.561 135.234H125.942V130.357H126.561V135.234Z" fill="white"/>
<path d="M130.621 135.24H130.002V133.656H127.582V133.248H133.069V133.656H130.621V135.24ZM132.395 132.696H128.243V130.542H128.862V131.234H131.783V130.542H132.395V132.696V132.696ZM131.783 132.299V131.635H128.862V132.299H131.783Z" fill="white"/>
<path d="M137.167 131.914H133.564V131.518H137.167V131.914ZM136.826 133.22C136.826 133.516 136.694 133.756 136.43 133.951C136.165 134.146 135.818 134.241 135.394 134.241C134.969 134.241 134.622 134.146 134.35 133.951C134.086 133.761 133.947 133.516 133.947 133.22C133.947 132.924 134.079 132.679 134.35 132.483C134.622 132.288 134.962 132.188 135.387 132.188C135.811 132.188 136.158 132.282 136.423 132.478C136.687 132.673 136.819 132.919 136.819 133.214L136.826 133.22ZM136.284 131.077H134.469V130.675H136.284V131.077ZM135.992 133.655C136.145 133.544 136.221 133.399 136.221 133.214C136.221 133.03 136.145 132.891 135.985 132.774C135.825 132.656 135.63 132.601 135.394 132.601C135.157 132.601 134.962 132.656 134.809 132.774C134.656 132.891 134.58 133.036 134.58 133.22C134.58 133.404 134.656 133.544 134.809 133.661C134.962 133.773 135.157 133.834 135.4 133.834C135.644 133.834 135.852 133.778 136.005 133.661L135.992 133.655ZM139.253 132.796H138.287V135.229H137.668V130.352H138.287V132.383H139.253V132.796Z" fill="white"/>
<path d="M142.702 133.086H139.893V130.787H142.702V133.086ZM142.097 132.695V131.183H140.498V132.695H142.097ZM144.733 135.084H140.658V133.583H141.27V134.682H144.733V135.084V135.084ZM143.982 131.568H143.001V131.172H143.982V130.357H144.601V133.901H143.982V132.645H143.001V132.249H143.982V131.568V131.568Z" fill="white"/>
<path d="M50.0261 141.931H49.4141V140.235H48.0371V139.828H53.5242V140.235H52.1264V141.931H51.5144V140.235H50.0261V141.931ZM52.9331 138.343C52.9331 138.661 52.7384 138.923 52.3489 139.119C51.9595 139.314 51.4379 139.415 50.7772 139.415C50.1165 139.415 49.5949 139.314 49.2124 139.119C48.8299 138.923 48.6352 138.661 48.6352 138.343C48.6352 138.025 48.8299 137.774 49.2124 137.573C49.5949 137.372 50.1235 137.283 50.7772 137.283C51.4309 137.283 51.9595 137.378 52.3489 137.573C52.7384 137.768 52.9331 138.025 52.9331 138.343ZM51.876 137.88C51.5978 137.763 51.2362 137.701 50.7772 137.701C50.3182 137.701 49.9496 137.763 49.6784 137.88C49.4072 137.997 49.2681 138.153 49.2681 138.343C49.2681 138.533 49.4072 138.695 49.6784 138.812C49.9496 138.929 50.3182 138.99 50.7842 138.99C51.2501 138.99 51.6187 138.929 51.8899 138.812C52.1612 138.695 52.3002 138.538 52.3002 138.343C52.3002 138.148 52.1612 137.997 51.883 137.88H51.876Z" fill="white"/>
<path d="M57.2577 137.573C57.2368 138.321 56.9795 138.98 56.4788 139.554C55.9781 140.129 55.2965 140.609 54.4341 140.983L54.0586 140.609C54.7749 140.336 55.3661 139.956 55.8181 139.487C56.2771 139.013 56.5344 138.511 56.5831 137.986H54.3229V137.568H57.2507L57.2577 137.573ZM59.038 141.932H58.4191V137.054H59.038V141.932Z" fill="white"/>
<path d="M60.3956 137.439H63.1218C63.094 138.092 62.8436 138.639 62.3568 139.091C61.8769 139.543 61.2302 139.861 60.4165 140.051L60.1035 139.649C60.7364 139.521 61.258 139.298 61.6822 138.974C62.1064 138.65 62.3568 138.276 62.4472 137.847H60.3956V137.439V137.439ZM65.2012 141.809H61.1189V140.285H61.7309V141.407H65.2012V141.809ZM63.1705 139.532V139.13H64.4362V138.438H63.2331V138.031H64.4362V137.054H65.0552V140.598H64.4362V139.532H63.1705Z" fill="white"/>
<path d="M70.9035 139.973H69.1231V140.933H71.5711V141.334H66.084V140.933H68.5042V139.973H66.7447V137.395H67.3636V138.282H70.2915V137.395H70.9035V139.973V139.973ZM70.2915 139.565V138.684H67.3636V139.565H70.2915Z" fill="white"/>
<path d="M76.8148 139.515C76.8148 139.755 76.6618 139.95 76.3627 140.101C76.0637 140.252 75.6603 140.336 75.1457 140.358V140.961H77.5867V141.357H72.0996V140.961H74.5267V140.352C74.0191 140.324 73.6157 140.241 73.3167 140.09C73.0246 139.945 72.8785 139.75 72.8785 139.515C72.8785 139.247 73.0593 139.035 73.414 138.885C73.7687 138.734 74.2486 138.656 74.8536 138.656C75.4587 138.656 75.9246 138.734 76.2793 138.885C76.634 139.035 76.8148 139.247 76.8148 139.515V139.515ZM77.3155 138.438H72.3639V138.042H77.3155V138.438ZM76.1611 139.515C76.1611 139.365 76.0359 139.247 75.7855 139.164C75.5352 139.08 75.2222 139.041 74.8606 139.041C74.4989 139.041 74.179 139.08 73.9217 139.164C73.6644 139.247 73.5392 139.365 73.5392 139.515C73.5392 139.666 73.6644 139.777 73.9217 139.856C74.179 139.934 74.492 139.978 74.8606 139.978C75.2292 139.978 75.5421 139.939 75.7925 139.856C76.0428 139.777 76.168 139.66 76.168 139.515H76.1611ZM75.9246 137.679H73.7478V137.277H75.9246V137.679Z" fill="white"/>
<path d="M81.4245 138.176H78.1211V137.791H81.4245V138.176ZM81.2367 139.164C81.2367 139.393 81.1046 139.582 80.8473 139.727C80.59 139.872 80.2492 139.945 79.8319 139.945C79.4146 139.945 79.0669 139.872 78.8096 139.727C78.5523 139.582 78.4271 139.398 78.4271 139.164C78.4271 138.929 78.5592 138.734 78.8096 138.589C79.0669 138.444 79.4077 138.377 79.8319 138.377C80.2561 138.377 80.59 138.449 80.8473 138.589C81.1046 138.734 81.2367 138.924 81.2367 139.164ZM80.736 137.489H78.9765V137.099H80.736V137.489ZM80.6247 139.164C80.6247 139.041 80.5482 138.94 80.3952 138.862C80.2422 138.784 80.0545 138.745 79.8319 138.745C79.6094 138.745 79.4285 138.784 79.2686 138.862C79.1086 138.94 79.0321 139.035 79.0321 139.164C79.0321 139.292 79.1086 139.381 79.2686 139.454C79.4285 139.526 79.6163 139.571 79.8319 139.571C80.0475 139.571 80.2422 139.532 80.3952 139.454C80.5482 139.376 80.6247 139.281 80.6247 139.164ZM83.1006 141.881H79.1643V140.151H79.7763V140.609H82.4816V140.14H83.1006V141.881ZM82.4816 141.485V141H79.7763V141.485H82.4816ZM81.5358 138.634V138.243H82.4816V137.054H83.1006V139.889H82.4816V139.532H81.5358V139.141H82.4816V138.634H81.5358V138.634Z" fill="white"/>
<path d="M88.226 141C87.6418 141.056 86.9533 141.1 86.1535 141.139C85.1521 141.173 84.5123 141.189 84.241 141.189L84.1367 140.777C84.6653 140.777 85.2286 140.765 85.8267 140.743V140.297C85.4789 140.258 85.2008 140.168 84.9921 140.023C84.7835 139.878 84.6792 139.699 84.6792 139.487C84.6792 139.242 84.8183 139.047 85.0895 138.896C85.3607 138.745 85.7154 138.673 86.1466 138.673C86.5778 138.673 86.9464 138.745 87.2176 138.896C87.4888 139.047 87.6209 139.242 87.6209 139.493C87.6209 139.711 87.5166 139.889 87.301 140.04C87.0854 140.185 86.8003 140.28 86.4456 140.308V140.721C87.1759 140.693 87.7531 140.659 88.1773 140.615L88.2329 141.005L88.226 141ZM87.9756 138.416H84.3523V138.02H87.9756V138.416ZM86.995 137.685H85.2355V137.289H86.995V137.685ZM86.7447 139.794C86.9046 139.711 86.9811 139.61 86.9811 139.487C86.9811 139.365 86.9046 139.264 86.7447 139.18C86.5847 139.097 86.39 139.058 86.1466 139.058C85.9032 139.058 85.7154 139.097 85.5624 139.18C85.4094 139.264 85.3329 139.365 85.3329 139.487C85.3329 139.61 85.4094 139.711 85.5624 139.794C85.7154 139.878 85.9101 139.917 86.1466 139.917C86.383 139.917 86.5847 139.878 86.7447 139.794ZM89.1579 141.932H88.5459V137.054H89.1579V141.932Z" fill="white"/>
<path d="M91.5931 137.439C92.0034 137.439 92.3164 137.579 92.5528 137.858C92.7893 138.137 92.9075 138.499 92.9284 138.963H93.5195V137.154H94.1037V141.708H93.5195V139.37H92.9284C92.9005 139.822 92.7754 140.185 92.5459 140.453C92.3164 140.726 92.0034 140.86 91.5931 140.86C91.1549 140.86 90.8281 140.704 90.5986 140.386C90.3691 140.068 90.2578 139.655 90.2578 139.141C90.2578 138.628 90.3691 138.22 90.5986 137.908C90.8281 137.595 91.1549 137.439 91.5931 137.439V137.439ZM92.1425 140.09C92.2677 139.855 92.3303 139.543 92.3303 139.147C92.3303 138.751 92.2677 138.438 92.1425 138.204C92.0173 137.969 91.8365 137.858 91.5931 137.858C91.3497 137.858 91.1828 137.975 91.0576 138.209C90.9324 138.444 90.8629 138.756 90.8629 139.147C90.8629 139.537 90.9254 139.855 91.0506 140.09C91.1758 140.324 91.3566 140.436 91.5931 140.436C91.8295 140.436 92.0173 140.319 92.1425 140.09ZM95.279 141.937H94.6948V137.06H95.279V141.937Z" fill="white"/>
<path d="M99.8194 140.403L99.4508 140.771C99.1518 140.615 98.8597 140.397 98.5676 140.124C98.2755 139.85 98.0738 139.577 97.9695 139.309C97.8652 139.605 97.6774 139.895 97.4062 140.179C97.128 140.47 96.822 140.704 96.4812 140.888L96.0918 140.525C96.5578 140.291 96.9402 139.973 97.2254 139.577C97.5105 139.18 97.6566 138.756 97.6566 138.315V137.473H98.2894V138.293C98.2894 138.734 98.4355 139.136 98.7206 139.51C99.0058 139.884 99.3743 140.179 99.8264 140.403H99.8194ZM101.176 141.932H100.557V139.186H99.2005V138.767H100.557V137.054H101.176V141.932V141.932Z" fill="white"/>
<path d="M107.213 137.573C107.192 138.321 106.935 138.98 106.434 139.554C105.933 140.129 105.252 140.609 104.389 140.983L104.014 140.609C104.73 140.336 105.321 139.956 105.773 139.487C106.232 139.013 106.489 138.511 106.545 137.986H104.285V137.568H107.213V137.573ZM108.993 141.932H108.374V137.054H108.993V141.932Z" fill="white"/>
<path d="M113.061 141.937H112.442V140.352H110.021V139.945H115.509V140.352H113.061V141.937ZM114.834 139.392H110.682V137.238H111.301V137.93H114.222V137.238H114.834V139.392V139.392ZM114.222 138.996V138.332H111.301V138.996H114.222Z" fill="white"/>
<path d="M118.946 138.494C118.946 138.829 118.821 139.108 118.563 139.326C118.306 139.543 117.965 139.655 117.534 139.655C117.103 139.655 116.762 139.543 116.505 139.32C116.247 139.097 116.115 138.823 116.115 138.494C116.115 138.165 116.24 137.88 116.498 137.668C116.755 137.45 117.103 137.344 117.534 137.344C117.965 137.344 118.306 137.45 118.563 137.668C118.821 137.886 118.946 138.159 118.946 138.5V138.494ZM118.341 138.494C118.341 138.276 118.264 138.103 118.118 137.964C117.972 137.824 117.777 137.757 117.534 137.757C117.291 137.757 117.096 137.824 116.95 137.964C116.804 138.103 116.727 138.276 116.727 138.494C116.727 138.712 116.804 138.879 116.95 139.019C117.096 139.158 117.291 139.22 117.534 139.22C117.777 139.22 117.972 139.153 118.118 139.019C118.264 138.885 118.341 138.706 118.341 138.494ZM121.171 141.937H120.559V140.57H117.033V140.174H121.171V141.937ZM121.171 139.923H120.58V138.684H119.933V139.878H119.342V137.143H119.933V138.276H120.58V137.054H121.171V139.923V139.923Z" fill="white"/>
<path d="M124.029 141.307V141.016L125.1 140.124C125.49 139.794 125.775 139.521 125.956 139.309C126.137 139.091 126.22 138.862 126.22 138.622C126.22 138.382 126.143 138.193 125.99 138.075C125.837 137.958 125.601 137.902 125.274 137.902C124.947 137.902 124.607 138.003 124.238 138.198L124.092 137.819C124.509 137.595 124.94 137.484 125.392 137.484C125.865 137.484 126.227 137.579 126.484 137.774C126.742 137.969 126.867 138.232 126.867 138.572C126.867 138.873 126.762 139.147 126.554 139.398C126.345 139.649 126.018 139.956 125.566 140.33L124.871 140.894H126.957V141.307H124.029V141.307Z" fill="white"/>
<path d="M130.211 140.721H127.777V137.529H128.382V138.712H129.606V137.523H130.211V140.721ZM129.606 140.324V139.108H128.382V140.324H129.606ZM132.715 141.932H132.124V139.437H131.456V141.692H130.865V137.16H131.456V139.035H132.124V137.054H132.715V141.932Z" fill="white"/>
<path d="M139.085 141.312H133.598V140.91H136.018V140.14H134.258V138.572H137.791V137.857H134.244V137.456H138.403V138.974H134.87V139.738H138.57V140.14H136.637V140.91H139.085V141.312Z" fill="white"/>
<path d="M140.024 140.419L139.947 137.377H140.622L140.545 140.419H140.024V140.419ZM139.954 141.401V140.86H140.629V141.401H139.954Z" fill="white"/>
<path d="M69.7836 45.5195C69.7836 46.0497 69.6167 46.312 69.2828 46.312H68.1771C67.7876 46.312 67.5859 46.1557 67.5859 45.8488V44.5596H69.4915C69.6862 44.5596 69.7836 44.6378 69.7836 44.794V45.5195V45.5195ZM69.7071 46.524C69.9366 46.524 70.1452 46.5464 70.333 46.5966C70.5208 46.6468 70.6807 46.7082 70.8059 46.7808C70.938 46.8589 71.0354 46.9538 71.1049 47.0598C71.1745 47.1658 71.2093 47.283 71.2093 47.4058C71.2093 47.5286 71.1745 47.6402 71.1049 47.7462C71.0354 47.8522 70.938 47.9471 70.8059 48.0252C70.6738 48.1034 70.5208 48.1648 70.333 48.215C70.1452 48.2652 69.9366 48.2875 69.7071 48.2875C69.4776 48.2875 69.2689 48.2652 69.0812 48.215C68.8934 48.1648 68.7334 48.1034 68.6083 48.0252C68.4761 47.9471 68.3718 47.8522 68.3092 47.7462C68.2397 47.6402 68.2049 47.523 68.2049 47.4058C68.2049 47.2886 68.2397 47.1714 68.3092 47.0598C68.3788 46.9538 68.4761 46.8589 68.6083 46.7808C68.7404 46.7026 68.8934 46.6412 69.0812 46.5966C69.2689 46.5464 69.4776 46.524 69.7071 46.524ZM68.9351 45.8488C69.0394 45.8488 69.0951 45.7651 69.0951 45.5977V45.0228H68.2883V45.6981C68.2883 45.7986 68.3509 45.8432 68.4692 45.8432H68.9351V45.8488ZM69.7071 47.8299C69.8253 47.8299 69.9296 47.8188 70.0339 47.7964C70.1383 47.7741 70.2217 47.7406 70.2913 47.7016C70.3678 47.6625 70.4234 47.6179 70.4651 47.5621C70.5068 47.5118 70.5277 47.456 70.5277 47.3946C70.5277 47.3332 70.5068 47.283 70.4651 47.2328C70.4234 47.1826 70.3678 47.1323 70.2913 47.0933C70.2148 47.0542 70.1313 47.0263 70.0339 47.004C69.9366 46.9817 69.8253 46.9705 69.7071 46.9705C69.5888 46.9705 69.4776 46.9817 69.3802 47.004C69.2828 47.0263 69.1924 47.0542 69.1229 47.0933C69.0464 47.1323 68.9908 47.177 68.949 47.2328C68.9073 47.283 68.8934 47.3388 68.8934 47.3946C68.8934 47.456 68.9143 47.5118 68.949 47.5621C68.9908 47.6123 69.0464 47.6625 69.1229 47.7016C69.1994 47.7406 69.2828 47.7741 69.3802 47.7964C69.4776 47.8188 69.5888 47.8299 69.7071 47.8299ZM69.9992 45.1512H70.5347V44.4146H71.2371V45.9939C71.2371 46.3789 71.098 46.5687 70.8198 46.5687H70.7224C70.5973 46.5687 70.5347 46.5185 70.5347 46.4236V45.62H69.9992V45.1568V45.1512Z" fill="white"/>
<path d="M76.3355 47.1434C76.3772 47.2216 76.3842 47.2941 76.3564 47.3667C76.3285 47.4392 76.259 47.4894 76.1477 47.5173C76.0782 47.5452 75.9808 47.5676 75.8487 47.601C75.7165 47.6289 75.5635 47.6568 75.3827 47.6848C75.2019 47.7127 75.0072 47.7294 74.7985 47.7461C74.5899 47.7629 74.3743 47.774 74.1587 47.774C73.9431 47.774 73.7345 47.7629 73.5189 47.7461C73.3033 47.7294 73.1086 47.7071 72.9278 47.6848C72.7469 47.6568 72.587 47.6345 72.4409 47.601C72.2949 47.5676 72.1906 47.5452 72.121 47.5173C72.0167 47.4894 71.9541 47.4448 71.9193 47.3722C71.8846 47.2997 71.8985 47.2216 71.9541 47.1434C71.9819 47.1044 72.0167 47.082 72.0654 47.0709C72.1141 47.0597 72.1558 47.0541 72.2045 47.0541C72.2532 47.0541 72.2949 47.0653 72.3436 47.0709C72.3923 47.0765 72.434 47.0876 72.4827 47.0988C72.5244 47.1099 72.587 47.1267 72.6913 47.1434C72.7887 47.1657 72.9069 47.1825 73.0529 47.2048C73.199 47.2271 73.3589 47.2439 73.5467 47.255C73.6232 47.2606 73.7067 47.2662 73.7901 47.2718V46.7472H74.4856V47.2718C74.5968 47.2718 74.6942 47.2606 74.7846 47.255C74.9654 47.2383 75.1115 47.2216 75.2367 47.1992C75.3619 47.1769 75.4662 47.1602 75.5427 47.1378C75.6261 47.1155 75.6887 47.1044 75.7304 47.0932C75.7722 47.082 75.8208 47.0765 75.8765 47.0653C75.9321 47.0541 75.9878 47.0486 76.0503 47.0486C76.106 47.0486 76.1616 47.0486 76.2103 47.0653C76.259 47.082 76.3007 47.1044 76.3285 47.1434H76.3355ZM72.58 44.5205H75.5427C75.6331 44.5205 75.6818 44.5652 75.6818 44.66C75.6818 44.8777 75.5983 44.9837 75.4314 44.9837H73.2824V45.3353H75.4453C75.5357 45.3353 75.5774 45.3799 75.5774 45.4692C75.5774 45.6869 75.494 45.7929 75.3271 45.7929H73.2894V46.0496C73.2894 46.1222 73.3311 46.1556 73.4215 46.1556H75.6678C75.7583 46.1556 75.8 46.2003 75.8 46.2952C75.8 46.5128 75.7165 46.6188 75.5496 46.6188H73.1851C72.7956 46.6188 72.5939 46.4626 72.5939 46.1556V44.5205H72.58Z" fill="white"/>
<path d="M76.9395 47.071V46.6078H77.315V45.1958H78.0035V46.6078H78.4764V45.1958H79.158V46.6078H79.5405C79.6309 46.6078 79.6726 46.658 79.6726 46.7529C79.6726 46.9649 79.5891 47.071 79.4222 47.071H76.9395V47.071ZM76.9673 45.0675V44.6043H79.457C79.5474 44.6043 79.5961 44.6545 79.5961 44.7494C79.5961 44.9615 79.5126 45.0675 79.3457 45.0675H76.9673V45.0675ZM80.6671 47.6346C80.6671 48.0197 80.528 48.2094 80.2498 48.2094H80.1455C80.0203 48.2094 79.9577 48.1592 79.9577 48.0643V44.4146H80.6671V47.6402V47.6346Z" fill="white"/>
<path d="M82.9216 44.5708C83.1164 44.5708 83.2833 44.6043 83.4363 44.6768C83.5823 44.7494 83.7075 44.8387 83.8118 44.9503C83.9161 45.0619 83.9927 45.1958 84.0483 45.3577C84.1039 45.5139 84.1317 45.6869 84.1317 45.8655C84.1317 46.0441 84.1039 46.2059 84.0483 46.3622C83.9927 46.5185 83.9161 46.6524 83.8118 46.7696C83.7075 46.8868 83.5823 46.9761 83.4363 47.0486C83.2902 47.1212 83.1164 47.1547 82.9216 47.1547C82.7408 47.1547 82.5809 47.1212 82.4279 47.0486C82.2749 46.9761 82.1497 46.8868 82.0523 46.7696C81.948 46.658 81.8646 46.524 81.8159 46.3622C81.7602 46.2059 81.7324 46.0385 81.7324 45.8655C81.7324 45.6925 81.7602 45.5139 81.8159 45.3577C81.8715 45.2014 81.948 45.0619 82.0523 44.9503C82.1566 44.8387 82.2818 44.7438 82.4279 44.6768C82.5809 44.6043 82.7408 44.5708 82.9216 44.5708ZM82.9216 46.6412C82.9981 46.6412 83.0607 46.6189 83.1233 46.5799C83.1859 46.5408 83.2416 46.4794 83.2902 46.4069C83.3389 46.3343 83.3737 46.2506 83.3946 46.1501C83.4154 46.0497 83.4293 45.9492 83.4293 45.8376C83.4293 45.726 83.4154 45.6311 83.3946 45.5363C83.3667 45.4414 83.332 45.3577 83.2902 45.2851C83.2416 45.2126 83.1859 45.1568 83.1233 45.1177C83.0607 45.0787 82.9912 45.0563 82.9216 45.0563C82.8521 45.0563 82.7826 45.0787 82.72 45.1177C82.6574 45.1568 82.6017 45.2126 82.56 45.2851C82.5113 45.3577 82.4766 45.4414 82.4557 45.5363C82.4279 45.6311 82.4209 45.7316 82.4209 45.8376C82.4209 45.9437 82.4348 46.0497 82.4557 46.1501C82.4766 46.2506 82.5183 46.3343 82.56 46.4069C82.6087 46.4794 82.6574 46.5352 82.72 46.5799C82.7826 46.6189 82.8521 46.6412 82.9216 46.6412ZM85.314 47.6346C85.314 48.0197 85.1749 48.2094 84.9037 48.2094H84.8063C84.6811 48.2094 84.6255 48.1592 84.6255 48.0643V44.4146H85.321V45.5642H85.8843C85.9747 45.5642 86.0234 45.6144 86.0234 45.7204C86.0234 45.9381 85.9399 46.0497 85.773 46.0497H85.3279V47.6346H85.314Z" fill="white"/>
<path d="M96.2524 45.9827C96.2316 46.0999 96.0925 46.1501 95.8352 46.1389C95.7587 46.1389 95.6543 46.1389 95.5292 46.1557C95.404 46.1724 95.3344 46.2003 95.3205 46.2394C95.251 46.4291 95.1953 46.6802 95.1606 46.9983C95.1258 47.3164 95.098 47.5452 95.091 47.6959C95.0841 47.7685 95.0493 47.8243 94.9797 47.8689C94.9102 47.908 94.8407 47.9303 94.7572 47.9359C94.6807 47.9359 94.6112 47.9303 94.5486 47.908C94.486 47.8857 94.4582 47.8522 94.4582 47.8131C94.479 47.4504 94.5694 46.937 94.7294 46.2729C94.6042 46.2952 94.5207 46.3119 94.479 46.3287C94.3399 46.5854 94.2008 46.9704 94.0617 47.4783C94.0478 47.5173 93.9992 47.5452 93.9018 47.5732C93.8044 47.6011 93.714 47.6011 93.6236 47.5843C93.5332 47.5676 93.4984 47.5229 93.5123 47.456C93.568 47.2216 93.6862 46.8979 93.874 46.4793C93.8948 46.4403 93.8809 46.4235 93.8462 46.4235C93.7418 46.4403 93.5819 46.4738 93.3732 46.524C93.1646 46.5798 92.9838 46.6077 92.8447 46.6189C92.7752 46.6189 92.7265 46.6077 92.6987 46.5742C92.6708 46.5407 92.6569 46.5128 92.6639 46.4793C92.6778 46.3789 92.8447 46.3063 93.1716 46.2561C93.1785 46.2561 93.2133 46.2561 93.2689 46.245C93.3246 46.245 93.3593 46.2394 93.3802 46.2338C94.1591 46.0943 94.9311 45.9715 95.6961 45.871C95.7378 45.8599 95.7865 45.8543 95.856 45.8543C95.9256 45.8543 95.9882 45.8487 96.0507 45.8431C96.1133 45.8431 96.169 45.8543 96.2177 45.8766C96.2663 45.8989 96.2802 45.938 96.2733 45.9827H96.2524ZM95.4874 45.2014C95.4666 45.3409 95.404 45.4525 95.2927 45.5418C95.1814 45.6255 95.0702 45.6813 94.945 45.7092C94.8267 45.7315 94.6946 45.7427 94.5625 45.7427H94.4025C94.4025 45.7427 94.3399 45.7371 94.2495 45.7204C94.1661 45.7036 94.1104 45.6925 94.0965 45.6869C94.0478 45.6701 94.0061 45.6199 93.9713 45.5362C93.9366 45.4525 93.9157 45.3911 93.9157 45.352C93.9713 45.2293 94.0826 45.1232 94.2426 45.0228C94.4025 44.9223 94.5625 44.8777 94.7363 44.8777C94.7363 44.8777 94.7711 44.8777 94.8267 44.8888C94.8824 44.8944 94.9102 44.9 94.9241 44.9C94.938 44.9 94.9728 44.9 95.0423 44.8888C95.1119 44.8777 95.1536 44.8777 95.1606 44.8777C95.2371 44.8777 95.2997 44.8944 95.3414 44.9335C95.3901 44.9726 95.4179 45.0116 95.4318 45.0618C95.4457 45.1121 95.4596 45.1623 95.4874 45.2069V45.2014ZM94.8546 45.1902C94.8546 45.1567 94.8407 45.1456 94.8059 45.1456C94.7781 45.1456 94.7502 45.1567 94.7085 45.1846C94.6251 45.246 94.5764 45.313 94.5694 45.3799C94.5694 45.3967 94.5764 45.419 94.5972 45.4413C94.6181 45.4637 94.639 45.4748 94.6668 45.4748C94.7224 45.4748 94.7642 45.4413 94.7989 45.3744C94.8337 45.3074 94.8476 45.246 94.8546 45.1958V45.1902Z" fill="white"/>
<path d="M98.36 45.3856C98.2626 45.6032 97.9079 46.0329 97.2959 46.6859C97.2612 46.7249 97.1986 46.7584 97.1151 46.7807C97.0317 46.8031 96.9621 46.8142 96.9134 46.8142C96.8578 46.8142 96.8161 46.8086 96.7813 46.7975C96.7465 46.7863 96.7326 46.764 96.7465 46.7305C96.7604 46.6747 96.8926 46.4794 97.136 46.1445C97.3794 45.8041 97.5185 45.62 97.5394 45.5865V45.5474C97.5394 45.5474 97.3724 45.5474 97.1151 45.5976C96.8578 45.6479 96.7048 45.6758 96.6492 45.6758C96.6074 45.6758 96.5796 45.659 96.5518 45.62C96.524 45.5809 96.517 45.553 96.524 45.5307C96.5449 45.4525 96.7535 45.3744 97.1569 45.2907C97.5602 45.207 97.8593 45.1679 98.054 45.1679C98.1305 45.1679 98.2 45.1847 98.2696 45.2237C98.3391 45.2628 98.3669 45.3186 98.36 45.3856V45.3856ZM100.015 44.9503C99.7439 45.3967 99.4936 45.9994 99.2641 46.7584C99.2363 46.8533 99.2015 47.0263 99.1667 47.2774C99.1667 47.2886 99.1667 47.3053 99.1667 47.3332C99.1667 47.3611 99.1667 47.3779 99.1598 47.3834C99.1389 47.4504 99.0624 47.5062 98.9233 47.5509C98.7842 47.5955 98.6799 47.6178 98.6173 47.6178C98.5756 47.6178 98.5408 47.6011 98.4991 47.5732C98.4713 47.5453 98.4574 47.5118 98.4643 47.4672C98.506 47.177 98.6243 46.7807 98.8259 46.2729C99.0276 45.7651 99.2154 45.3186 99.4101 44.9391C99.431 44.8945 99.4866 44.8666 99.5701 44.8387C99.6605 44.8163 99.7439 44.8052 99.8274 44.8052C99.9039 44.8052 99.9665 44.8163 100.008 44.8387C100.05 44.861 100.057 44.9 100.022 44.9503H100.015Z" fill="white"/>
<path d="M103.917 45.0731C103.889 45.1736 103.791 45.4359 103.617 45.8656C103.444 46.2897 103.332 46.5241 103.277 46.5687C103.214 46.6245 103.117 46.658 102.978 46.6748C102.839 46.6915 102.762 46.6636 102.755 46.6022C102.755 46.552 102.776 46.4794 102.797 46.379C102.825 46.2785 102.839 46.2116 102.839 46.1837V46.1725C102.839 46.1725 102.839 46.1669 102.832 46.1613C102.79 46.1613 102.762 46.1613 102.755 46.1613C102.393 46.2618 102.122 46.3288 101.934 46.3511C101.914 46.3567 101.879 46.3511 101.83 46.3343C101.781 46.3176 101.761 46.2953 101.768 46.2674C101.768 46.2339 101.795 46.2116 101.823 46.1892C101.851 46.1669 101.893 46.1502 101.934 46.139C101.976 46.1279 102.011 46.1167 102.053 46.1C102.192 46.0553 102.352 46.0107 102.533 45.966C102.713 45.9214 102.846 45.8823 102.929 45.8544L102.992 45.6647C102.866 45.6926 102.713 45.7316 102.526 45.7819C102.338 45.8377 102.206 45.8712 102.136 45.8879L102.011 45.927C101.921 45.9493 101.872 45.9604 101.865 45.9604C101.837 45.9604 101.823 45.9604 101.809 45.9437C101.67 46.1 101.517 46.2618 101.343 46.4348C101.169 46.6078 101.03 46.7027 100.94 46.7194C100.801 46.7362 100.724 46.7473 100.69 46.7473C100.655 46.7473 100.62 46.7362 100.592 46.7194C100.564 46.7027 100.557 46.6803 100.571 46.658C100.62 46.5799 100.745 46.4181 100.947 46.1725C101.149 45.927 101.274 45.7595 101.336 45.6702C101.037 45.7763 100.829 45.8321 100.717 45.8321C100.697 45.8321 100.676 45.8153 100.662 45.7763C100.648 45.7372 100.641 45.7149 100.641 45.6981C100.641 45.6814 100.655 45.6647 100.676 45.6479C100.822 45.5698 101.037 45.4861 101.336 45.4024C101.635 45.3187 101.858 45.274 102.025 45.274C102.074 45.274 102.108 45.2908 102.129 45.3187C102.15 45.3466 102.157 45.3745 102.15 45.408C102.136 45.4693 102.101 45.5531 102.053 45.6591C102.067 45.6591 102.081 45.6535 102.094 45.6479L102.122 45.6368C102.47 45.5419 102.804 45.4582 103.117 45.3912C103.193 45.2238 103.256 45.1122 103.298 45.0564C103.298 45.0564 103.332 45.0396 103.402 45.0229C103.471 45.0061 103.548 44.9838 103.631 44.9615C103.715 44.9448 103.791 44.9392 103.847 44.9615C103.903 44.9838 103.93 45.0173 103.917 45.0843V45.0731ZM104.25 46.792C104.334 46.792 104.355 46.8254 104.313 46.8924C104.271 46.9538 104.216 46.9984 104.153 47.0208C103.833 47.1268 103.409 47.244 102.887 47.3779C102.366 47.5119 101.976 47.5733 101.733 47.5733C101.656 47.5733 101.608 47.484 101.587 47.311C101.566 47.138 101.566 47.004 101.587 46.9036C101.587 46.8478 101.642 46.8031 101.74 46.7696C101.83 46.7362 101.921 46.7138 102.011 46.7027C102.101 46.6915 102.171 46.6859 102.227 46.6859C102.254 46.6859 102.275 46.6915 102.31 46.7083C102.345 46.725 102.359 46.7473 102.373 46.7752C102.38 46.792 102.373 46.8254 102.373 46.8813C102.366 46.9315 102.352 46.9817 102.338 47.0319C102.331 47.0822 102.324 47.1268 102.338 47.1659C102.338 47.2049 102.366 47.2273 102.393 47.2328C102.456 47.2328 102.658 47.1938 103.012 47.1101C103.367 47.0264 103.59 46.965 103.68 46.9371C103.944 46.8478 104.146 46.8031 104.271 46.8031L104.25 46.792Z" fill="white"/>
<path d="M108.298 47.0987C108.298 47.0987 108.277 47.149 108.249 47.1769C108.222 47.2048 108.194 47.2215 108.166 47.2215C108.138 47.2215 108.11 47.2327 108.062 47.2382C108.02 47.2494 107.971 47.255 107.93 47.2606C107.888 47.2661 107.832 47.2717 107.777 47.2717C107.728 47.2717 107.651 47.2661 107.554 47.2494C107.457 47.2327 107.38 47.2271 107.331 47.2271C107.095 47.2271 106.796 47.2494 106.427 47.2885C106.059 47.3275 105.767 47.3778 105.544 47.4336C105.53 47.4336 105.502 47.4447 105.454 47.4503C105.405 47.4615 105.363 47.4671 105.329 47.4782C105.287 47.4894 105.252 47.5061 105.217 47.5229C105.203 47.534 105.148 47.5452 105.05 47.5675C104.953 47.5898 104.876 47.601 104.828 47.601C104.73 47.601 104.668 47.5675 104.633 47.5005C104.598 47.4336 104.605 47.3833 104.654 47.3499C104.717 47.3052 105.085 47.2327 105.781 47.1266C105.899 47.1043 105.968 47.0764 105.989 47.0429C106.038 46.9704 106.08 46.8867 106.121 46.7918C106.163 46.6969 106.17 46.6188 106.149 46.5574C106.135 46.5128 106.087 46.4737 105.989 46.4458C105.975 46.4402 105.947 46.4235 105.906 46.4011C105.864 46.3732 105.836 46.3621 105.829 46.3621C105.822 46.3621 105.774 46.3621 105.697 46.3788C105.621 46.39 105.579 46.3956 105.572 46.3956C105.509 46.3956 105.461 46.3732 105.426 46.323C105.391 46.2728 105.377 46.2226 105.377 46.1612C105.377 46.0998 105.377 46.044 105.384 45.9882C105.384 45.9324 105.391 45.8933 105.398 45.8766C105.398 45.8375 105.405 45.7482 105.426 45.6143C105.447 45.4803 105.468 45.3743 105.502 45.3017C105.516 45.2683 105.579 45.2348 105.697 45.1957C105.808 45.1622 105.92 45.1399 106.017 45.1399C106.107 45.1399 106.149 45.1846 106.135 45.285C106.135 45.3017 106.121 45.3408 106.1 45.4078C106.08 45.4747 106.066 45.5306 106.059 45.5696C106.038 45.7091 106.038 45.7817 106.073 45.7817C106.073 45.7817 106.128 45.7594 106.233 45.7203C106.337 45.6812 106.476 45.6422 106.636 45.6031C106.796 45.564 106.956 45.5473 107.102 45.5473C107.137 45.5473 107.165 45.5138 107.192 45.4524L107.234 45.3576C107.234 45.3073 107.248 45.2459 107.248 45.1846C107.248 45.1232 107.248 45.0729 107.255 45.0506C107.255 45.0171 107.269 44.9892 107.297 44.9669C107.318 44.9557 107.394 44.9334 107.526 44.9055C107.665 44.8776 107.749 44.8665 107.79 44.8665C107.839 44.8665 107.881 44.8776 107.909 44.9055C107.936 44.9334 107.957 44.9613 107.95 45.0004C107.95 45.0283 107.93 45.1064 107.895 45.2348C107.86 45.3631 107.832 45.4468 107.818 45.4803C107.763 45.6087 107.728 45.698 107.707 45.7426C107.686 45.7873 107.651 45.8487 107.61 45.9212C107.568 45.9938 107.512 46.0775 107.443 46.1723C107.394 46.2393 107.324 46.3007 107.234 46.3453C107.144 46.3956 107.06 46.429 106.991 46.4402C106.921 46.4569 106.852 46.4737 106.796 46.4904C106.796 46.5909 106.775 46.6858 106.74 46.7639C106.733 46.7862 106.719 46.8197 106.706 46.8755C106.692 46.9313 106.678 46.9648 106.671 46.9871C106.706 47.0039 106.74 47.0039 106.782 46.9983C106.879 46.9983 106.998 46.9871 107.151 46.976C107.304 46.9648 107.429 46.9536 107.533 46.948C107.637 46.9425 107.749 46.9369 107.881 46.9369C108.013 46.9369 108.131 46.948 108.236 46.9704C108.263 46.9704 108.27 47.0206 108.27 47.1043L108.298 47.0987ZM107.018 45.8431C107.018 45.8431 107.018 45.8152 107.005 45.8096C106.991 45.8096 106.949 45.8208 106.886 45.8375C106.824 45.8542 106.789 45.8598 106.775 45.8598C106.699 45.871 106.601 45.8933 106.497 45.9268C106.393 45.9603 106.33 46.0105 106.323 46.0607C106.323 46.083 106.351 46.0998 106.42 46.1221C106.49 46.1444 106.539 46.1556 106.566 46.1556C106.608 46.1556 106.643 46.1556 106.664 46.1444C106.692 46.1388 106.733 46.1221 106.789 46.0942C106.81 46.083 106.852 46.044 106.921 45.9714C106.984 45.8989 107.018 45.8598 107.025 45.8431H107.018Z" fill="white"/>
<path d="M109.431 46.1276C109.369 46.1444 109.313 46.1332 109.272 46.0997C109.223 46.0607 109.209 46.016 109.216 45.9602C109.223 45.9044 109.459 45.843 109.918 45.7705C110.127 45.737 110.287 45.7035 110.412 45.6589C110.454 45.5472 110.53 45.2459 110.635 44.7436C110.676 44.6934 110.76 44.6543 110.892 44.6264C111.017 44.5985 111.114 44.5818 111.184 44.5818C111.24 44.5818 111.288 44.5929 111.33 44.6097C111.372 44.6264 111.386 44.6543 111.379 44.6878C111.379 44.7325 111.323 44.8776 111.24 45.1287C111.149 45.3798 111.094 45.5249 111.066 45.5584C111.066 45.5751 111.08 45.5807 111.101 45.5807L112.067 45.4691C112.116 45.4691 112.151 45.5082 112.172 45.5751C112.192 45.6421 112.158 45.6812 112.067 45.6979C111.761 45.737 111.427 45.7872 111.073 45.843C111.198 45.8598 111.302 45.9044 111.386 45.9714C111.469 46.0383 111.504 46.1165 111.497 46.1946C111.483 46.2616 111.455 46.323 111.42 46.3676C111.386 46.4178 111.33 46.4625 111.261 46.496C111.191 46.5294 111.128 46.5629 111.08 46.5852C111.031 46.6076 110.948 46.6355 110.843 46.669C110.843 46.6745 110.836 46.708 110.815 46.775C110.795 46.842 110.781 46.9033 110.767 46.9592C110.753 47.015 110.739 47.0763 110.732 47.1433C110.725 47.2103 110.718 47.2605 110.725 47.2996C110.725 47.3386 110.739 47.3554 110.76 47.3554C111.393 47.2717 111.949 47.227 112.436 47.227C112.464 47.227 112.491 47.2494 112.519 47.294C112.547 47.3386 112.561 47.3721 112.554 47.4C112.554 47.4447 112.505 47.4726 112.429 47.4949C112.352 47.5172 112.29 47.5228 112.241 47.5228C112.241 47.5228 112.158 47.5228 112.012 47.5228C111.866 47.5228 111.789 47.5228 111.775 47.5228C111.226 47.5228 110.551 47.6009 109.751 47.7572C109.744 47.7572 109.619 47.7851 109.376 47.8409C109.132 47.8967 108.959 47.9302 108.854 47.9469C108.826 47.9469 108.799 47.9469 108.764 47.9469C108.729 47.9469 108.694 47.9302 108.66 47.9079C108.625 47.8855 108.618 47.8576 108.632 47.8242C108.66 47.7628 108.764 47.707 108.959 47.6567C109.153 47.6065 109.362 47.5674 109.584 47.534C109.807 47.5005 109.939 47.4726 109.995 47.4503C109.995 47.4168 110.009 47.3721 110.03 47.2996C110.05 47.2326 110.064 47.1656 110.085 47.1043C110.106 47.0429 110.12 46.9871 110.141 46.9313L110.162 46.8475C110.169 46.7862 110.217 46.7359 110.287 46.6969C110.273 46.6857 110.217 46.6745 110.12 46.6634C110.016 46.6578 109.96 46.6466 109.939 46.6299C109.877 46.5797 109.842 46.535 109.828 46.5015C109.814 46.4681 109.814 46.4234 109.821 46.362C109.849 46.2392 109.967 46.1165 110.196 45.9881C109.925 46.0328 109.682 46.083 109.452 46.1332L109.431 46.1276ZM110.822 46.2672C110.822 46.2672 110.822 46.2169 110.815 46.1779C110.808 46.1388 110.788 46.1165 110.76 46.1165C110.718 46.1165 110.669 46.1332 110.607 46.1667C110.551 46.2002 110.516 46.2448 110.502 46.2951C110.489 46.3788 110.523 46.4234 110.607 46.4234C110.621 46.4234 110.649 46.4234 110.669 46.4122C110.697 46.4067 110.725 46.3899 110.753 46.362C110.788 46.3341 110.802 46.3062 110.808 46.2672H110.822Z" fill="white"/>
<path d="M115.467 45.3353C115.203 45.4134 114.925 45.4804 114.619 45.5362C114.661 45.5529 114.696 45.5753 114.716 45.5976C114.751 45.6366 114.786 45.698 114.821 45.7873C114.855 45.8766 114.869 45.9324 114.869 45.9492C114.849 46.044 114.786 46.1277 114.675 46.2003C114.563 46.2784 114.41 46.3342 114.23 46.3677C114.209 46.3733 114.146 46.3789 114.035 46.39C113.924 46.4012 113.861 46.4012 113.84 46.4012C113.708 46.4012 113.604 46.3677 113.513 46.2952C113.43 46.2226 113.416 46.1445 113.472 46.0608C113.492 46.0161 113.527 45.9603 113.576 45.8934C113.625 45.8264 113.68 45.7706 113.743 45.7259L113.096 45.8989C113.047 45.8989 113.019 45.8766 112.999 45.8264C112.978 45.7762 112.978 45.7427 113.013 45.7148C113.103 45.6645 113.2 45.6255 113.298 45.592C113.395 45.5585 113.513 45.5195 113.645 45.486C113.778 45.4525 113.868 45.4246 113.917 45.4078C113.951 45.3911 113.972 45.3744 113.986 45.3465C114.007 45.2906 114.049 45.1734 114.104 44.9949C114.167 44.8107 114.216 44.6768 114.264 44.5931C114.264 44.5875 114.348 44.5652 114.501 44.5317C114.654 44.4982 114.744 44.4814 114.779 44.4814C114.814 44.4814 114.842 44.4926 114.862 44.5149C114.883 44.5373 114.89 44.5596 114.883 44.5875C114.862 44.6991 114.821 44.8219 114.758 44.9502C114.696 45.0786 114.633 45.1846 114.577 45.2627C114.89 45.2014 115.175 45.1511 115.447 45.1065C115.495 45.1065 115.523 45.1176 115.537 45.1567C115.551 45.1958 115.544 45.2293 115.53 45.2627C115.509 45.3018 115.495 45.3241 115.474 45.3297L115.467 45.3353ZM114.237 45.9994C114.237 45.9994 114.243 45.9715 114.237 45.9268C114.237 45.8822 114.216 45.8655 114.195 45.8655C114.174 45.8655 114.146 45.8766 114.111 45.8989C114.077 45.9213 114.056 45.9436 114.056 45.9603C114.042 46.044 114.07 46.0998 114.132 46.1222C114.181 46.0943 114.216 46.0552 114.23 45.9994H114.237ZM116.448 46.63C116.392 46.9146 116.26 47.2606 116.052 47.6736C115.975 47.8187 115.808 47.9582 115.558 48.0977C115.509 48.1256 115.419 48.148 115.28 48.1759C115.148 48.2038 115.043 48.2149 114.967 48.2149C114.814 48.2149 114.702 48.1814 114.64 48.1089C114.577 48.0363 114.556 47.947 114.577 47.8354V47.8075C114.577 47.8075 114.577 47.7796 114.577 47.7685C114.549 47.7629 114.515 47.7685 114.48 47.774C114.445 47.7852 114.424 47.7908 114.424 47.7908C114.369 47.7908 114.32 47.7852 114.264 47.7685C114.209 47.7517 114.181 47.735 114.174 47.7182C114.167 47.7015 114.153 47.6569 114.153 47.5731C114.153 47.4894 114.153 47.4392 114.153 47.4225C114.153 47.389 114.167 47.3499 114.174 47.2997C114.181 47.2495 114.195 47.1992 114.209 47.1434C114.223 47.0876 114.243 47.0374 114.257 46.9872C114.271 46.9369 114.299 46.8979 114.327 46.8644C114.355 46.8309 114.39 46.8086 114.424 46.7974C114.584 46.7305 114.696 46.7026 114.744 46.7026C114.835 46.7026 114.89 46.7137 114.925 46.7305C114.946 46.7416 114.96 46.7528 114.981 46.7751C115.002 46.7974 115.008 46.8142 115.002 46.8253C114.995 46.8532 114.96 46.9369 114.89 47.082C114.828 47.2271 114.779 47.3555 114.758 47.4559C114.758 47.5006 114.758 47.5285 114.758 47.5341C114.862 47.4727 115.015 47.4113 115.21 47.3499C115.405 47.2885 115.509 47.255 115.53 47.2439C115.544 47.2383 115.551 47.216 115.572 47.1825C115.586 47.149 115.6 47.1099 115.614 47.0597C115.627 47.0095 115.634 46.9648 115.648 46.9202C115.655 46.8756 115.669 46.8365 115.676 46.7974L115.69 46.7416C115.69 46.6914 115.69 46.6523 115.704 46.6133C115.718 46.5742 115.753 46.5463 115.808 46.5184C115.808 46.5184 115.808 46.5072 115.808 46.5017C115.787 46.4068 115.808 46.2728 115.885 46.111C115.44 46.2115 115.168 46.2784 115.064 46.3119C114.981 46.3119 114.932 46.2784 114.918 46.2003C114.918 46.2003 114.925 46.178 114.939 46.1556C114.946 46.1333 114.96 46.111 114.967 46.0943C114.974 46.0719 114.988 46.0608 115.002 46.0608C115.106 46.0273 115.203 45.9994 115.301 45.9771C115.398 45.9547 115.509 45.9268 115.648 45.8989C115.78 45.871 115.892 45.8487 115.982 45.8264C116.038 45.7036 116.066 45.6199 116.066 45.5753L115.78 45.6422C115.641 45.6757 115.53 45.698 115.454 45.7204C115.301 45.7594 115.196 45.7762 115.134 45.7762C115.106 45.7762 115.078 45.7594 115.05 45.7204C115.029 45.6813 115.015 45.6534 115.022 45.6366C115.036 45.5641 115.134 45.5139 115.321 45.4748C115.349 45.4692 115.447 45.4525 115.614 45.419C115.773 45.3855 115.906 45.3632 116.003 45.3409C116.073 45.3297 116.121 45.3297 116.156 45.3409C116.26 44.9781 116.337 44.7661 116.385 44.7103C116.427 44.6656 116.552 44.6489 116.761 44.6489C116.789 44.6489 116.865 44.6712 116.991 44.7158C117.025 44.7661 117.039 44.8219 117.025 44.8833C116.997 44.9837 116.914 45.2125 116.768 45.5808C116.622 45.9492 116.532 46.1668 116.497 46.2282C116.497 46.2449 116.476 46.2673 116.455 46.3063C116.434 46.3454 116.42 46.3733 116.399 46.3956C116.379 46.4179 116.358 46.4403 116.337 46.457C116.42 46.4793 116.455 46.5351 116.441 46.6188L116.448 46.63ZM115.461 47.5452C115.384 47.5676 115.308 47.5955 115.231 47.6345C115.155 47.6736 115.12 47.7127 115.12 47.7461C115.134 47.8075 115.155 47.841 115.189 47.8466C115.314 47.7685 115.405 47.668 115.461 47.5452V47.5452Z" fill="white"/>
<path d="M120.677 47.3556C120.67 47.3946 120.635 47.5174 120.573 47.7183C120.51 47.9192 120.461 48.0308 120.427 48.0531C120.371 48.0922 120.301 48.1201 120.211 48.1424C120.121 48.1648 120.037 48.1703 119.961 48.1592C119.884 48.1424 119.849 48.1089 119.849 48.0476C119.849 47.908 119.947 47.5509 120.127 46.9705C119.912 47.0207 119.543 47.1156 119.029 47.2607C118.514 47.4058 118.201 47.4951 118.097 47.5397C118.069 47.5509 118.013 47.562 117.916 47.5788C117.819 47.5955 117.763 47.6011 117.742 47.6011C117.693 47.6011 117.659 47.5844 117.638 47.5565C117.61 47.5286 117.603 47.4951 117.61 47.4616C117.631 47.4114 117.721 47.3611 117.902 47.3109C117.902 47.3109 117.992 47.283 118.159 47.2328C118.326 47.1826 118.438 47.1491 118.493 47.1379L118.611 46.6803C118.424 46.6803 118.298 46.658 118.229 46.6189C118.159 46.5798 118.132 46.5296 118.145 46.4626C118.145 46.4403 118.166 46.3957 118.215 46.3175C118.264 46.2394 118.319 46.178 118.375 46.1334C118.396 46.1166 118.438 46.0832 118.5 46.0218L118.431 46.0441C118.25 46.1055 118.09 46.1334 117.965 46.1334C117.826 46.1334 117.763 46.0999 117.777 46.0385C117.791 45.966 117.881 45.9102 118.055 45.8655C118.222 45.8209 118.347 45.7985 118.417 45.7985C118.584 45.7595 118.737 45.7204 118.876 45.6813C118.862 45.6646 118.841 45.659 118.806 45.659C118.771 45.659 118.757 45.659 118.75 45.6534C118.764 45.5809 118.799 45.4525 118.855 45.2628C118.91 45.0731 118.945 44.9447 118.959 44.8777C118.959 44.8666 118.973 44.8442 118.994 44.8219C119.015 44.7996 119.029 44.7829 119.05 44.7773C119.084 44.7605 119.175 44.7326 119.314 44.6992C119.453 44.6657 119.543 44.6489 119.585 44.6489C119.675 44.6489 119.703 44.7215 119.675 44.861C119.648 45.0005 119.599 45.14 119.536 45.2795C119.474 45.4191 119.432 45.5139 119.397 45.5642C119.828 45.4693 120.072 45.4246 120.134 45.4191C120.183 45.4135 120.211 45.4302 120.232 45.4693C120.253 45.5083 120.253 45.5474 120.232 45.5921C120.211 45.6367 120.183 45.659 120.134 45.6702C120.044 45.6925 119.919 45.7148 119.752 45.7483C119.585 45.7818 119.467 45.8041 119.397 45.8153C119.502 45.8432 119.599 45.9157 119.703 46.0329C119.703 46.0441 119.717 46.072 119.717 46.1278C119.717 46.1836 119.717 46.2171 119.717 46.2338C119.689 46.351 119.543 46.4626 119.265 46.5743C119.272 46.6301 119.265 46.6803 119.237 46.7361C119.237 46.7584 119.216 46.7975 119.196 46.8589C119.168 46.9203 119.154 46.9649 119.147 46.9872C119.161 46.9872 119.279 46.9593 119.495 46.8979C119.62 46.87 119.745 46.8365 119.884 46.7975C120.016 46.7584 120.121 46.7138 120.197 46.6635C120.232 46.6412 120.267 46.6022 120.294 46.5519C120.322 46.5017 120.343 46.4626 120.35 46.4403C120.468 46.0385 120.628 45.5642 120.837 45.0117C120.851 44.9893 120.886 44.967 120.955 44.9391C121.025 44.9112 121.094 44.8945 121.171 44.8833C121.247 44.8722 121.317 44.8722 121.372 44.8945C121.428 44.9168 121.449 44.9447 121.428 44.9893C121.414 45.0228 121.351 45.2182 121.233 45.5753C121.115 45.9325 121.011 46.2562 120.92 46.5519C120.83 46.8477 120.753 47.1156 120.698 47.3556H120.677ZM119.091 46.2394C119.112 46.1501 119.091 46.1055 119.036 46.1055C118.987 46.1055 118.938 46.1334 118.89 46.1836C118.841 46.2338 118.806 46.2729 118.806 46.2952C118.806 46.3175 118.806 46.3399 118.834 46.3622C118.862 46.3845 118.89 46.4013 118.931 46.4013C118.98 46.4013 119.015 46.3789 119.043 46.3399C119.07 46.3008 119.091 46.2673 119.091 46.2338V46.2394Z" fill="white"/>
<path d="M88.2539 47.3945L89.1441 46.3342L88.2956 45.3074H88.6781L89.3666 46.1445L90.0134 45.3074H90.382L89.5614 46.3342L90.4376 47.3945H90.0482L89.3388 46.524L88.6225 47.3945H88.2609H88.2539Z" fill="white"/>
<path d="M63.942 75.8674H53.1973L54.5047 68.5791H64.9157L64.5958 70.9955H67.9548L68.379 67.4294H72.1693L71.2374 76.6208H67.2941L67.7044 73.1385H64.3106L63.949 75.873L63.942 75.8674ZM70.9244 79.9134C70.8201 80.9403 69.9855 81.755 68.4138 82.3466C66.8351 82.9437 64.7418 83.2451 62.1408 83.2451C59.5398 83.2451 57.5508 82.9437 56.1251 82.3354C54.7064 81.7327 54.0944 80.9235 54.2683 79.9078C54.4421 78.8922 55.3254 78.055 56.904 77.4691C58.4758 76.8887 60.5204 76.5929 63.0519 76.5929C65.5833 76.5929 67.5514 76.8831 68.9563 77.4579C70.375 78.0383 71.0357 78.8531 70.9244 79.9078V79.9134ZM60.4091 73.73L60.8751 70.6048H57.9124L57.4048 73.73H60.4091V73.73ZM62.7598 78.7415C61.4175 78.7415 60.3674 78.8419 59.6024 79.0428C58.8374 79.2437 58.4271 79.5339 58.3714 79.919C58.3158 80.265 58.6496 80.5385 59.359 80.7449C60.0753 80.9514 61.1046 81.0519 62.4399 81.0519C63.7751 81.0519 64.8253 80.9514 65.5833 80.7449C66.3344 80.5385 66.7308 80.265 66.7725 79.919C66.8143 79.5507 66.4874 79.2605 65.7919 79.054C65.0965 78.8475 64.0811 78.7415 62.7598 78.7415Z" fill="white"/>
<path d="M91.9683 76.9779H85.8413L85.7509 79.2716H94.0824V81.5318H73.3301L73.5318 79.2716H81.8146L81.9398 76.9779H75.9867L76.6822 68.3279H92.01L91.9891 70.3816H80.3542L80.2777 71.5424H91.4119L91.3841 73.6407H80.1455L80.069 74.8182H91.9822L91.9543 76.9779H91.9683Z" fill="white"/>
<path d="M109.306 77.1956L109.668 79.3274C108.013 79.5228 105.773 79.679 102.943 79.7962C100.112 79.9134 97.6992 79.9581 95.7033 79.9357L95.293 77.6477H97.7757L97.2055 71.442L100.982 71.3024L101.281 77.5919L102.985 77.536L103.124 71.3024L106.838 71.4922L106.406 77.3909C107.039 77.3575 108.006 77.2905 109.299 77.19L109.306 77.1956ZM107.922 70.6551H95.8841L95.8702 68.6125H107.797L107.915 70.6551H107.922ZM114.759 83.4013H110.725L109.647 67.4294H113.41L114.759 83.4013V83.4013Z" fill="white"/>
<path d="M118.681 78.1276C117.45 77.0115 116.754 75.5996 116.594 73.903C116.434 72.2065 116.845 70.8783 117.825 69.8291C118.799 68.7911 120.176 68.2777 121.97 68.2777C123.764 68.2777 125.287 68.7911 126.497 69.8236C127.715 70.8671 128.452 72.2232 128.702 73.903C128.952 75.5996 128.612 77.0115 127.673 78.1276C126.72 79.2549 125.287 79.8241 123.382 79.8241C121.476 79.8241 119.918 79.2549 118.681 78.1276V78.1276ZM124.954 73.903C124.814 72.8315 124.495 72.0279 124.001 71.481C123.507 70.9341 122.93 70.6662 122.269 70.6662C121.608 70.6662 121.129 70.9341 120.781 71.481C120.433 72.0279 120.322 72.8315 120.44 73.903C120.558 74.9745 120.864 75.8284 121.344 76.392C121.824 76.9612 122.401 77.2459 123.069 77.2459C123.737 77.2459 124.272 76.9612 124.634 76.392C124.995 75.8228 125.1 74.9913 124.954 73.903ZM133.202 67.4294L134.175 73.0324H136.881L137.298 75.2815H134.565L135.97 83.4013H131.936L129.439 67.4294H133.202V67.4294Z" fill="white"/>
<path d="M46.8967 102.895L49.602 88.2957H62.1898L61.8142 91.0916H54.1851L53.74 93.8038H59.7626L59.3593 96.6667H53.2671L52.7455 99.8198H60.8962L60.4859 102.889H46.8828L46.8967 102.895Z" fill="#5A5CEF"/>
<path d="M68.8027 102.895L64.0527 88.2957H69.2617L72.2591 97.9725H72.3982L77.0716 88.2957H81.7381L74.3802 102.895H68.8027Z" fill="#5A5CEF"/>
<path d="M83.2695 102.895L83.9163 88.2957H96.504L96.5249 91.0916H88.8958L88.8332 93.8038H94.8558V96.6667H88.7706L88.6941 99.8198H96.8448L96.8726 102.889H83.2695V102.895Z" fill="#5A5CEF"/>
<path d="M99.9729 102.895L99.6738 88.2957H105.182L111.608 96.2537H111.691L111.149 88.2957H115.488L116.74 102.895H111.594L104.333 93.5917H104.222L104.577 102.895H99.9729V102.895Z" fill="#5A5CEF"/>
<path d="M124.356 102.895L122.999 91.0972H118.145L117.881 88.3013H132.583L133.021 91.0972H128.194L129.801 102.895H124.369H124.356Z" fill="#5A5CEF"/>
<path d="M136.721 97.7269L134.314 87.4976H139.558L140.775 97.7269H136.721V97.7269ZM137.381 103.402L136.818 100.004H141.485L142.111 103.402H137.388H137.381Z" fill="#5A5CEF"/>
<path d="M152.841 114.279H35.7687C32.5385 114.279 29.9199 116.381 29.9199 118.973V119.843C29.9199 122.435 32.5385 124.537 35.7687 124.537H152.841C156.072 124.537 158.69 122.435 158.69 119.843V118.973C158.69 116.381 156.072 114.279 152.841 114.279Z" fill="#5A5CEF"/>
<path d="M43.6482 120.914H40.5117V116.896H43.6482V120.914ZM42.8763 120.401V117.415H41.2837V120.401H42.8763ZM46.9586 122.605H46.1866V119.268H45.3104V122.293H44.5384V116.349H45.3104V118.732H46.1866V116.21H46.9586V122.605Z" fill="white"/>
<path d="M48.9271 116.835C49.3165 116.562 49.8033 116.422 50.3806 116.422C50.9578 116.422 51.4446 116.556 51.8271 116.829C52.2166 117.103 52.4113 117.449 52.4113 117.873C52.4113 118.297 52.2166 118.632 51.8271 118.9C51.4377 119.162 50.9578 119.296 50.3806 119.296C49.8033 119.296 49.3165 119.168 48.9271 118.905C48.5376 118.649 48.3359 118.303 48.3359 117.879C48.3359 117.454 48.5307 117.103 48.9271 116.829V116.835ZM50.3806 116.98C50.0259 116.98 49.7338 117.064 49.4904 117.237C49.247 117.41 49.1288 117.622 49.1288 117.879C49.1288 118.135 49.247 118.347 49.4834 118.509C49.7199 118.671 50.0189 118.755 50.3806 118.755C50.7422 118.755 51.0482 118.671 51.2777 118.504C51.5072 118.336 51.6185 118.13 51.6185 117.873C51.6185 117.605 51.5072 117.387 51.2847 117.22C51.0621 117.053 50.7561 116.969 50.3806 116.969V116.98ZM54.9428 122.561H49.4834V120.914H53.8509V120.323H49.4556V119.798H54.6646V121.4H50.2902V122.031H54.9497V122.566L54.9428 122.561ZM54.6576 119.463H53.8439V116.21H54.6576V119.463Z" fill="white"/>
<path d="M59.4275 120.914H56.291V116.896H59.4275V120.914ZM58.6556 120.401V117.415H57.063V120.401H58.6556ZM62.7379 122.605H61.9659V119.268H61.0897V122.293H60.3177V116.349H61.0897V118.732H61.9659V116.21H62.7379V122.605Z" fill="white"/>
<path d="M64.7005 116.835C65.09 116.562 65.5768 116.422 66.154 116.422C66.7312 116.422 67.2181 116.556 67.6006 116.829C67.99 117.103 68.1847 117.449 68.1847 117.873C68.1847 118.297 67.99 118.632 67.6006 118.9C67.2111 119.162 66.7312 119.296 66.154 119.296C65.5768 119.296 65.09 119.168 64.7005 118.905C64.3111 118.649 64.1094 118.303 64.1094 117.879C64.1094 117.454 64.3041 117.103 64.7005 116.829V116.835ZM66.154 116.98C65.7993 116.98 65.5072 117.064 65.2638 117.237C65.0204 117.41 64.9022 117.622 64.9022 117.879C64.9022 118.135 65.0204 118.347 65.2569 118.509C65.4933 118.671 65.7924 118.755 66.154 118.755C66.5156 118.755 66.8216 118.671 67.0511 118.504C67.2806 118.336 67.3919 118.13 67.3919 117.873C67.3919 117.605 67.2806 117.387 67.0581 117.22C66.8356 117.053 66.5296 116.969 66.154 116.969V116.98ZM70.7162 122.561H65.2569V120.914H69.6243V120.323H65.2291V119.798H70.438V121.4H66.0636V122.031H70.7231V122.566L70.7162 122.561ZM70.4311 119.463H69.6174V116.21H70.4311V119.463Z" fill="white"/>
<path d="M75.3744 121.813V117.511L74.2617 117.706V117.332L75.7361 116.785H76.1742V121.813H75.3744Z" fill="white"/>
<path d="M80.0682 121.875C79.3797 121.875 78.8303 121.679 78.413 121.294C77.9957 120.904 77.7871 120.312 77.7871 119.514V119.123C77.7871 118.309 78.0027 117.717 78.4269 117.343C78.8512 116.969 79.4006 116.785 80.0752 116.785C80.7497 116.785 81.2713 116.969 81.6817 117.338C82.092 117.706 82.2937 118.292 82.2937 119.096V119.52C82.2937 120.318 82.092 120.915 81.6817 121.3C81.2713 121.685 80.7289 121.88 80.0612 121.88L80.0682 121.875ZM80.0682 121.35C80.5342 121.35 80.8888 121.211 81.1183 120.932C81.3548 120.653 81.4661 120.212 81.4661 119.598V119.096C81.4661 117.907 81.0001 117.31 80.0682 117.31C79.1363 117.31 78.6356 117.89 78.6356 119.045V119.564C78.6356 120.753 79.1085 121.35 80.0612 121.35H80.0682Z" fill="white"/>
<path d="M87.3302 119.62H83.6582V116.707H87.3302V119.62ZM86.5304 119.107V117.22H84.458V119.107H86.5304ZM89.1732 120.446C89.653 120.669 89.8895 120.976 89.8895 121.361C89.8895 121.746 89.653 122.053 89.1801 122.271C88.7072 122.488 88.0396 122.606 87.1772 122.606C86.3148 122.606 85.6611 122.494 85.1882 122.271C84.7153 122.048 84.4719 121.746 84.4719 121.361C84.4719 120.976 84.7083 120.669 85.1882 120.446C85.6681 120.223 86.3287 120.111 87.1772 120.111C88.0257 120.111 88.7002 120.223 89.1801 120.446H89.1732ZM87.1702 120.641C86.5861 120.641 86.1271 120.703 85.8002 120.831C85.4664 120.959 85.3064 121.132 85.3064 121.356C85.3064 121.579 85.4733 121.752 85.8002 121.88C86.134 122.003 86.5861 122.064 87.1702 122.064C87.7544 122.064 88.2412 122.003 88.5681 121.88C88.9019 121.757 89.0619 121.579 89.0619 121.356C89.0619 121.132 88.895 120.954 88.5681 120.831C88.2343 120.703 87.7683 120.641 87.1702 120.641ZM87.7336 117.734V117.215H89.0271V116.205H89.8408V120.128H89.0271V119.051H87.7336V118.532H89.0271V117.734H87.7336V117.734Z" fill="white"/>
<path d="M93.0818 116.712C93.6173 116.712 94.0345 116.897 94.3336 117.259C94.6326 117.622 94.7995 118.102 94.8274 118.705H95.5993V116.333H96.3643V122.304H95.5993V119.24H94.8274C94.7926 119.832 94.6257 120.306 94.3266 120.664C94.0276 121.021 93.6103 121.199 93.0748 121.199C92.5045 121.199 92.0664 120.993 91.7674 120.58C91.4683 120.167 91.3223 119.62 91.3223 118.95C91.3223 118.281 91.4683 117.745 91.7674 117.332C92.0664 116.924 92.4976 116.718 93.0748 116.718L93.0818 116.712ZM93.7981 120.184C93.965 119.877 94.0415 119.469 94.0415 118.95C94.0415 118.431 93.958 118.024 93.7981 117.717C93.6312 117.41 93.3947 117.259 93.0818 117.259C92.7688 117.259 92.5393 117.416 92.3724 117.723C92.2055 118.029 92.122 118.442 92.122 118.95C92.122 119.458 92.2055 119.877 92.3654 120.184C92.5254 120.491 92.7688 120.641 93.0748 120.641C93.3808 120.641 93.6312 120.491 93.7911 120.184H93.7981ZM97.9082 122.6H97.1432V116.205H97.9082V122.6Z" fill="white"/>
<path d="M102.422 116.975C102.408 117.923 102.164 118.744 101.685 119.447C101.205 120.15 100.474 120.758 99.4869 121.289L98.9375 120.814C99.7373 120.44 100.37 119.96 100.822 119.386C101.281 118.805 101.545 118.186 101.615 117.516H99.2783V116.98H102.415L102.422 116.975ZM104.23 122.288H103.465V119.324H102.297V118.8H103.465V116.355H104.23V122.288ZM105.809 122.6H105.037V116.205H105.809V122.6Z" fill="white"/>
<path d="M109.988 120.558C109.647 120.139 109.48 119.598 109.48 118.922C109.48 118.247 109.647 117.706 109.988 117.287C110.329 116.869 110.837 116.662 111.504 116.662C112.172 116.662 112.673 116.869 113.013 117.287C113.347 117.706 113.521 118.253 113.521 118.928C113.521 119.603 113.354 120.139 113.013 120.558C112.673 120.976 112.172 121.183 111.504 121.183C110.837 121.183 110.329 120.976 109.988 120.558V120.558ZM112.721 118.928C112.721 118.415 112.617 118.002 112.401 117.689C112.186 117.377 111.887 117.215 111.497 117.215C111.108 117.215 110.809 117.371 110.6 117.683C110.392 117.996 110.287 118.409 110.287 118.928C110.287 119.447 110.392 119.843 110.6 120.156C110.809 120.468 111.108 120.624 111.497 120.624C111.887 120.624 112.186 120.468 112.401 120.156C112.617 119.843 112.721 119.436 112.721 118.928ZM116.79 119.28H115.51V122.6H114.696V116.205H115.51V118.744H116.79V119.28Z" fill="white"/>
<path d="M120.663 120.92H117.492V116.902H120.663V118.576H121.665V116.35H122.43V122.282H121.665V119.101H120.663V120.915V120.92ZM119.892 120.407V117.421H118.257V120.407H119.892ZM123.974 122.6H123.195V116.205H123.974V122.6Z" fill="white"/>
<path d="M130.198 120.351L130.282 120.887C129.315 121.015 128.063 121.082 126.533 121.099H125.539V118.582H128.522V117.315H125.504V116.79H129.322V119.101H126.338V120.552H126.575C128.119 120.552 129.329 120.485 130.191 120.356L130.198 120.351ZM130.894 116.21H131.707V122.605H130.894V116.21Z" fill="white"/>
<path d="M137.159 116.88C137.159 118.961 135.935 120.496 133.514 121.473L133.014 120.976C134.342 120.491 135.288 119.804 135.837 118.928L133.285 119.146L133.139 118.576L136.101 118.392C136.22 118.085 136.296 117.762 136.31 117.427H133.459V116.88H137.159ZM139.175 116.205V118.783H140.441V119.319H139.175V122.606H138.376V116.21H139.175V116.205Z" fill="white"/>
<path d="M147.292 119.782H144.893V121.244H148.099V121.769H140.908V121.244H144.079V119.782H141.757V116.746H142.556V119.263H147.292V119.782V119.782Z" fill="white"/>
<path d="M29.9542 44.9531C29.9542 44.3937 29.3891 43.9402 28.6919 43.9402C27.9948 43.9402 27.4297 44.3937 27.4297 44.9531C27.4297 45.5125 27.9948 45.966 28.6919 45.966C29.3891 45.966 29.9542 45.5125 29.9542 44.9531Z" fill="white"/>
<path d="M40.0102 50.1236C40.0102 50.1236 38.1533 45.0954 38.6541 42.5283C38.8418 41.5517 39.2313 40.5137 40.2258 39.9221C40.3857 39.8161 40.5874 39.7491 40.7961 39.7268C41.1438 39.71 41.4567 39.9165 41.6723 40.1342C42.8407 41.295 42.6112 42.9636 42.3191 44.4313C43.0285 43.3431 43.8908 42.5729 45.0314 41.7581C45.4973 41.4233 46.0607 41.0996 46.6866 41.1275C47.5976 41.1722 48.2027 41.9535 48.2861 42.6845C48.3904 43.5886 47.9592 44.4871 47.3125 45.2293C46.6657 45.9716 45.8172 46.5799 44.9688 47.1826C43.4179 48.2931 39.9963 50.1124 39.9963 50.1124L40.0102 50.1236Z" fill="#F47458"/>
<path d="M35.7142 57.1721C35.7142 57.1721 32.7724 55.5704 31.8753 54.3538C31.5345 53.8906 31.2494 53.3437 31.4163 52.8247C31.4371 52.7354 31.4928 52.6517 31.5693 52.5847C31.7292 52.4954 31.9309 52.4675 32.1117 52.5122C33.0993 52.674 33.7252 53.4442 34.2329 54.1417C34.0799 53.5223 34.0799 52.8861 34.2259 52.2666C34.2815 51.9932 34.3789 51.703 34.6501 51.5412C35.0535 51.3068 35.6446 51.4686 35.9924 51.7532C36.4235 52.1048 36.6322 52.6015 36.6809 53.0926C36.7017 53.5837 36.653 54.0804 36.5348 54.5659C36.3609 55.4644 35.7072 57.1776 35.7072 57.1776L35.7142 57.1721Z" fill="#87D9D7"/>
<line x1="66.9576" y1="46.5004" x2="125.958" y2="45.5004" stroke="#F5CF1F" stroke-width="5"/>
</g>
</g>
<defs>
<clipPath id="clip0_978_367">
<rect width="190" height="200" rx="40" fill="white"/>
</clipPath>
<clipPath id="clip1_978_367">
<rect x="18" y="31.6125" width="153" height="122.775" rx="10" fill="white"/>
</clipPath>
</defs>
</svg>
