<svg width="281" height="125" viewBox="0 0 281 125" fill="none" xmlns="http://www.w3.org/2000/svg">
<path d="M153.276 101.696C153.854 102.967 153.912 104.238 153.507 105.393C153.103 106.549 152.178 107.358 150.792 107.878C149.925 108.282 148.596 108.744 146.863 109.206C145.13 109.669 143.05 110.131 140.739 110.535C138.37 110.94 135.828 111.286 133.055 111.575C130.281 111.864 127.508 111.98 124.619 111.98C121.731 111.98 118.957 111.864 116.184 111.575C113.353 111.286 110.753 110.94 108.442 110.535C106.016 110.131 103.878 109.669 102.029 109.206C100.18 108.744 98.736 108.282 97.8116 107.878C96.4827 107.473 95.5583 106.664 95.1539 105.451C94.6917 104.238 94.865 103.024 95.6161 101.696C95.9627 101.118 96.4827 100.713 97.0605 100.54C97.6382 100.367 98.2738 100.251 98.8515 100.251C99.4293 100.251 100.065 100.425 100.7 100.54C101.336 100.656 101.914 100.829 102.549 101.002C103.069 101.176 103.936 101.465 105.265 101.753C106.536 102.1 108.153 102.389 110.06 102.736C111.967 103.082 114.104 103.313 116.589 103.544C117.629 103.66 118.669 103.718 119.766 103.833V95.167H128.895V103.833C130.339 103.833 131.668 103.718 132.824 103.544C135.192 103.256 137.157 102.967 138.832 102.62C140.45 102.273 141.837 101.927 142.876 101.638C143.916 101.291 144.783 101.06 145.361 100.887C145.939 100.771 146.574 100.598 147.325 100.425C148.076 100.251 148.827 100.136 149.636 100.136C150.387 100.136 151.081 100.136 151.774 100.425C152.467 100.656 152.987 101.118 153.334 101.753L153.276 101.696ZM103.762 58.5951H142.876C144.09 58.5951 144.668 59.3462 144.668 60.9061C144.668 64.4882 143.57 66.2215 141.317 66.2215H112.949V71.999H141.432C142.588 71.999 143.165 72.7501 143.165 74.1945C143.165 77.7766 142.068 79.5099 139.814 79.5099H112.891V83.7275C112.891 84.883 113.469 85.4607 114.624 85.4607H144.205C145.361 85.4607 145.939 86.2118 145.939 87.7718C145.939 91.3538 144.841 93.0871 142.588 93.0871H111.389C106.189 93.0871 103.647 90.545 103.647 85.4607V58.5374L103.762 58.5951Z" fill="#F5CF1F"/>
<path d="M161.249 100.54V92.9137H166.16V69.688H175.231V92.9137H181.47V69.688H190.483V92.9137H195.568C196.723 92.9137 197.301 93.7226 197.301 95.3403C197.301 98.8068 196.203 100.54 193.95 100.54H161.249ZM161.596 67.6081V59.9817H194.47C195.683 59.9817 196.261 60.7906 196.261 62.4083C196.261 65.8748 195.163 67.6081 192.91 67.6081H161.596ZM210.416 109.842C210.416 116.139 208.567 119.259 204.927 119.259H203.541C201.865 119.259 201.056 118.451 201.056 116.833V56.8618H210.416V109.842Z" fill="#F5CF1F"/>
<path d="M240.055 59.4039C242.597 59.4039 244.85 59.9817 246.815 61.1372C248.779 62.2927 250.455 63.7949 251.783 65.6437C253.112 67.4925 254.152 69.7458 254.845 72.3457C255.539 74.9456 255.943 77.7188 255.943 80.7231C255.943 83.7274 255.597 86.3273 254.845 88.9272C254.152 91.5271 253.112 93.7226 251.783 95.5714C250.455 97.478 248.779 98.9802 246.815 100.136C244.85 101.291 242.597 101.869 240.055 101.869C237.686 101.869 235.548 101.291 233.526 100.136C231.562 98.9802 229.886 97.478 228.558 95.5714C227.171 93.7226 226.131 91.5271 225.38 88.9272C224.687 86.3273 224.282 83.6119 224.282 80.7231C224.282 77.8343 224.629 75.0033 225.38 72.3457C226.073 69.7458 227.171 67.4925 228.558 65.6437C229.886 63.7949 231.562 62.2927 233.526 61.1372C235.491 59.9817 237.686 59.4039 240.055 59.4039ZM240.055 93.4337C241.037 93.4337 241.904 93.0871 242.77 92.4515C243.579 91.7582 244.33 90.8338 244.966 89.6205C245.544 88.4072 246.006 87.0206 246.352 85.4029C246.699 83.7852 246.815 82.1097 246.815 80.3187C246.815 78.5276 246.641 76.9099 246.352 75.35C246.006 73.79 245.544 72.4034 244.966 71.1901C244.33 70.0346 243.579 69.1102 242.77 68.4747C241.962 67.7814 241.037 67.4925 240.055 67.4925C239.073 67.4925 238.264 67.8392 237.397 68.4747C236.588 69.168 235.837 70.0346 235.26 71.1901C234.682 72.4034 234.22 73.79 233.873 75.35C233.526 76.9099 233.411 78.5854 233.411 80.3187C233.411 82.0519 233.584 83.843 233.873 85.4029C234.22 87.0206 234.682 88.4072 235.26 89.6205C235.837 90.8338 236.588 91.7582 237.397 92.4515C238.206 93.1448 239.131 93.4337 240.055 93.4337ZM271.6 109.784C271.6 116.082 269.809 119.202 266.169 119.202H264.841C263.223 119.202 262.414 118.393 262.414 116.775V56.8618H271.543V75.8122H278.938C280.151 75.8122 280.729 76.6788 280.729 78.3543C280.729 81.9364 279.631 83.7852 277.378 83.7852H271.485V109.842L271.6 109.784Z" fill="#F5CF1F"/>
<path d="M66.324 65.2969C69.0972 67.088 72.5637 68.0702 76.7236 68.2435C77.4169 67.0302 78.0524 65.7591 78.6879 64.4303C79.3235 63.1015 80.0168 61.8304 80.7678 60.6171C81.2878 59.6927 82.0967 59.115 83.1366 58.8839C84.1766 58.6528 85.1588 58.7683 86.0254 59.2305C86.8343 59.6927 87.412 60.2127 87.8165 60.9638C88.2209 61.7149 88.2787 62.4659 88.0476 63.3326C87.1809 67.3769 86.2565 71.4212 85.3899 75.4077C84.4655 79.3942 83.5411 83.3807 82.6167 87.425C82.6167 87.7138 82.5011 88.0605 82.3278 88.4072C82.2122 88.7538 81.9811 89.0427 81.75 89.216C81.1145 89.6782 80.479 90.0826 79.7857 90.6026C79.0924 91.0648 78.4568 91.2959 77.7635 91.1804C77.0702 91.1226 76.4347 90.7182 75.7414 90.0826C75.0481 89.4471 74.5859 88.8116 74.3548 88.1183C74.0659 87.2516 73.9503 86.3272 74.0081 85.3451C74.0659 84.3629 74.1237 83.3229 74.1237 82.3407C74.1237 81.7052 74.1237 81.0697 74.1237 80.4341C74.1237 79.7986 74.1237 79.0475 74.1237 78.2387L64.1285 75.1766C63.6663 76.1587 63.1463 77.0832 62.7419 77.892C62.2797 78.7009 61.8753 79.5675 61.4708 80.4919C60.4886 82.5718 59.1598 84.074 57.4843 84.9406C55.7511 85.8073 53.9022 86.0384 51.8223 85.5762C48.6447 84.8829 45.467 84.1318 42.2894 83.2074C39.1117 82.2829 35.9918 81.3008 32.872 80.203C31.3698 79.6253 30.2721 78.6431 29.6365 77.3143C29.001 75.9854 28.7121 74.541 28.8277 72.9233C29.0588 69.2257 29.6365 65.6436 30.4454 62.1193C31.2542 58.595 32.4675 55.1862 33.9697 51.8353C34.6052 50.4486 35.2407 49.3509 35.8763 48.542C36.5118 47.7332 37.3207 47.0977 38.1873 46.6932C39.0539 46.2888 40.0361 46.1155 41.1339 46.1155C42.2316 46.1155 43.5604 46.231 45.1204 46.5199C46.9114 46.8088 48.7024 47.1554 50.4935 47.5021C52.2845 47.8487 54.0756 48.2532 55.8088 48.6576C57.8887 49.2354 59.5642 49.8709 60.8931 50.622C62.2219 51.3153 63.2619 52.2397 64.013 53.2796C64.764 54.3196 65.284 55.6484 65.5151 57.1506C65.7462 58.6528 65.8618 60.6171 65.7462 62.9282C65.7462 63.2748 65.804 63.5637 65.9195 63.9103C65.9773 64.257 66.0929 64.6614 66.2662 65.2392L66.324 65.2969ZM45.2937 104.873C45.6403 102.735 46.507 100.829 47.8358 99.1534C49.1646 97.4779 50.7824 96.1491 52.689 95.1669C54.5378 94.1847 56.6177 93.5492 58.8132 93.3181C61.0086 93.087 63.2041 93.3181 65.3418 94.0692C67.4217 94.7625 69.2705 95.8024 70.8882 97.189C72.4482 98.5756 73.7192 100.136 74.6436 101.869C75.5681 103.602 76.1458 105.566 76.4347 107.589C76.6658 109.669 76.4347 111.691 75.8569 113.771C75.2792 115.735 74.2392 117.468 72.7948 119.028C71.3504 120.588 69.7327 121.859 67.8839 122.841C66.0351 123.824 64.013 124.401 61.8753 124.69C59.7376 124.979 57.7154 124.806 55.7511 124.228C53.6711 123.592 51.8801 122.61 50.2624 121.224C48.7024 119.837 47.3736 118.277 46.4492 116.544C45.467 114.753 44.8893 112.904 44.6582 110.882C44.4271 108.86 44.6582 106.838 45.2359 104.873H45.2937ZM66.4395 110.535C66.9017 109.033 66.6706 107.646 65.6884 106.318C64.7063 104.989 63.3774 104.064 61.4708 103.544C59.622 103.082 57.9465 103.198 56.5599 103.891C55.1733 104.584 54.2489 105.798 53.8445 107.473C53.6134 108.166 53.6134 108.917 53.8445 109.669C54.0756 110.477 54.4222 111.228 54.8266 111.922C55.2888 112.615 55.8088 113.251 56.5021 113.828C57.1954 114.406 57.8888 114.753 58.5821 114.868C59.3331 115.042 60.142 115.042 60.9509 114.868C61.7597 114.695 62.5108 114.406 63.3196 114.002C64.0707 113.597 64.7063 113.077 65.284 112.442C65.804 111.806 66.2084 111.171 66.3817 110.477L66.4395 110.535Z" fill="#231815"/>
<path d="M18.0816 37.5647C18.9483 36.7559 20.046 35.5426 20.6237 33.7516C21.4904 30.805 19.9304 29.3606 19.9882 25.6052C19.9882 24.3341 20.046 19.7699 22.9925 17.6322C25.2458 15.9567 28.3079 16.3611 29.8678 16.5922C34.1432 17.17 36.3387 19.5966 38.0142 18.441C38.9386 17.8055 39.0541 16.65 39.1119 16.4767C39.2852 14.859 37.9564 13.5301 37.3786 12.9524C31.4278 7.0015 19.6416 6.13486 19.6416 6.13486C13.9796 5.67266 9.24197 5.32601 5.42878 8.50366C3.23331 10.2947 2.3089 12.4324 1.67337 13.8768C-0.46432 18.8455 -1.15763 26.6452 3.29109 31.6139C5.83321 34.4449 9.29974 35.6004 11.7841 36.4092C14.3262 37.2181 16.5217 37.507 18.1394 37.6225L18.0816 37.5647Z" fill="#231815"/>
<path d="M91.9766 27.3385C92.5544 28.7829 93.941 30.5161 95.1543 30.3428C96.1942 30.1695 96.3098 28.7251 97.4653 26.4719C98.4475 24.5075 100.123 21.3298 103.07 20.0588C106.305 18.6722 109.771 20.1743 110.523 20.4632C111.389 20.8099 112.314 21.5609 114.162 22.9475C117.398 25.4319 120.287 28.1473 120.287 28.1473C120.287 28.1473 123.811 27.7429 125.371 26.2408C126.18 25.4897 126.584 24.3919 126.295 17.9211C126.122 13.0102 126.006 10.5836 125.429 8.96588C124.793 7.23261 123.638 3.93941 120.229 1.80171C116.3 -0.682635 112.14 0.0684467 111.447 0.241773C108.5 0.819528 106.536 2.66834 102.607 6.36598C99.083 9.65918 96.9453 12.6057 95.7898 14.339C93.941 17.0544 92.7277 19.5388 92.0344 22.3698C91.4566 24.623 91.4566 26.0097 92.0344 27.3385H91.9766Z" fill="#231815"/>
<path d="M47.3161 40.5691C50.9855 40.5691 53.9602 37.5944 53.9602 33.9249C53.9602 30.2555 50.9855 27.2808 47.3161 27.2808C43.6466 27.2808 40.6719 30.2555 40.6719 33.9249C40.6719 37.5944 43.6466 40.5691 47.3161 40.5691Z" fill="#231815"/>
<path d="M79.15 45.5955C82.8195 45.5955 85.7942 42.6208 85.7942 38.9513C85.7942 35.2818 82.8195 32.3071 79.15 32.3071C75.4806 32.3071 72.5059 35.2818 72.5059 38.9513C72.5059 42.6208 75.4806 45.5955 79.15 45.5955Z" fill="#231815"/>
<path d="M62.9154 57.7863C63.7821 61.1373 62.6843 65.2393 60.3155 66.3948C59.9111 66.5682 59.3911 66.857 58.8711 66.6259C57.4268 66.0482 58.64 62.6972 56.6179 60.6173C55.5779 59.5195 54.7691 60.0395 53.7869 58.7685C52.978 57.7863 52.5158 56.1108 53.0936 54.6086C53.8447 52.702 56.1557 51.8354 57.8312 52.0087C61.471 52.3554 62.7999 57.3818 62.9154 57.7863Z" fill="white"/>
</svg>
