<svg width="66" height="66" viewBox="0 0 66 66" fill="none" xmlns="http://www.w3.org/2000/svg">
<path d="M34.6279 34.0916C36.0758 35.0267 37.8857 35.5395 40.0576 35.63C40.4195 34.9965 40.7514 34.3329 41.0832 33.6391C41.415 32.9453 41.7769 32.2817 42.1691 31.6482C42.4406 31.1656 42.8629 30.8639 43.4058 30.7433C43.9488 30.6226 44.4616 30.683 44.9141 30.9243C45.3364 31.1656 45.638 31.4371 45.8492 31.8292C46.0603 32.2214 46.0905 32.6135 45.9698 33.066C45.5174 35.1775 45.0347 37.289 44.5823 39.3704C44.0996 41.4517 43.617 43.5331 43.1344 45.6446C43.1344 45.7954 43.074 45.9764 42.9835 46.1574C42.9232 46.3384 42.8025 46.4892 42.6819 46.5797C42.3501 46.821 42.0183 47.0322 41.6563 47.3037C41.2943 47.545 40.9625 47.6656 40.6005 47.6053C40.2386 47.5751 39.9067 47.364 39.5448 47.0322C39.1828 46.7004 38.9415 46.3686 38.8208 46.0066C38.67 45.5541 38.6097 45.0715 38.6398 44.5587C38.67 44.0459 38.7002 43.5029 38.7002 42.9901C38.7002 42.6583 38.7002 42.3265 38.7002 41.9947C38.7002 41.6629 38.7002 41.2707 38.7002 40.8484L33.4817 39.2497C33.2404 39.7625 32.9689 40.2451 32.7577 40.6674C32.5164 41.0897 32.3053 41.5422 32.0941 42.0249C31.5813 43.1108 30.8875 43.8951 30.0128 44.3475C29.1078 44.8 28.1425 44.9207 27.0566 44.6793C25.3976 44.3174 23.7385 43.9252 22.0795 43.4426C20.4204 42.96 18.7915 42.4472 17.1626 41.874C16.3783 41.5724 15.8052 41.0596 15.4734 40.3658C15.1416 39.672 14.9908 38.9179 15.0511 38.0733C15.1718 36.1427 15.4734 34.2725 15.8957 32.4325C16.318 30.5925 16.9515 28.8127 17.7358 27.0632C18.0676 26.3393 18.3994 25.7661 18.7312 25.3438C19.063 24.9215 19.4853 24.5897 19.9378 24.3786C20.3902 24.1674 20.903 24.0769 21.4762 24.0769C22.0493 24.0769 22.7431 24.1372 23.5575 24.2881C24.4926 24.4389 25.4277 24.6199 26.3628 24.8009C27.2979 24.9818 28.233 25.193 29.138 25.4041C30.2239 25.7058 31.0987 26.0376 31.7925 26.4297C32.4862 26.7917 33.0292 27.2744 33.4214 27.8173C33.8135 28.3603 34.085 29.0541 34.2056 29.8383C34.3263 30.6226 34.3866 31.6482 34.3263 32.8548C34.3263 33.0358 34.3565 33.1866 34.4168 33.3676C34.4469 33.5486 34.5073 33.7597 34.5978 34.0614L34.6279 34.0916ZM23.648 54.7543C23.829 53.6382 24.2815 52.6428 24.9753 51.768C25.669 50.8932 26.5137 50.1995 27.5091 49.6867C28.4744 49.1739 29.5603 48.8421 30.7065 48.7214C31.8528 48.6007 32.999 48.7214 34.1151 49.1135C35.2011 49.4755 36.1663 50.0185 37.0109 50.7424C37.8254 51.4664 38.489 52.2808 38.9716 53.1858C39.4543 54.0907 39.7559 55.1163 39.9067 56.1721C40.0274 57.258 39.9067 58.3137 39.6051 59.3997C39.3035 60.4253 38.7605 61.3302 38.0064 62.1446C37.2523 62.9591 36.4076 63.6227 35.4424 64.1355C34.4771 64.6483 33.4214 64.95 32.3053 65.1008C31.1892 65.2516 30.1334 65.1611 29.1078 64.8595C28.0219 64.5277 27.0868 64.0149 26.2422 63.2909C25.4277 62.567 24.7339 61.7525 24.2513 60.8476C23.7385 59.9125 23.4369 58.9472 23.3162 57.8914C23.1955 56.8357 23.3162 55.7799 23.6179 54.7543H23.648ZM34.6883 57.7104C34.9296 56.9262 34.8089 56.2022 34.2961 55.5084C33.7833 54.8146 33.0895 54.332 32.0941 54.0605C31.1288 53.8192 30.2541 53.8795 29.5301 54.2415C28.8062 54.6035 28.3235 55.237 28.1124 56.1117C27.9917 56.4737 27.9917 56.8658 28.1124 57.258C28.233 57.6803 28.414 58.0724 28.6252 58.4344C28.8665 58.7964 29.138 59.1282 29.5 59.4298C29.8619 59.7315 30.2239 59.9125 30.5859 59.9728C30.978 60.0633 31.4003 60.0633 31.8226 59.9728C32.2449 59.8823 32.6371 59.7315 33.0594 59.5203C33.4515 59.3092 33.7833 59.0377 34.085 58.7059C34.3565 58.3741 34.5676 58.0423 34.6581 57.6803L34.6883 57.7104Z" fill="#231815"/>
<path d="M9.44042 19.6126C9.89289 19.1903 10.466 18.5568 10.7677 17.6217C11.2201 16.0833 10.4057 15.3292 10.4359 13.3685C10.4359 12.7049 10.466 10.3219 12.0044 9.20579C13.1808 8.33102 14.7796 8.54217 15.594 8.66283C17.8262 8.96448 18.9724 10.2314 19.8472 9.6281C20.3298 9.29629 20.3902 8.69299 20.4203 8.6025C20.5108 7.75789 19.817 7.0641 19.5154 6.76246C16.4084 3.6555 10.2549 3.20303 10.2549 3.20303C7.29873 2.96172 4.82523 2.78073 2.83437 4.43978C1.68811 5.37489 1.20548 6.49098 0.873669 7.24509C-0.242422 9.83925 -0.604397 13.9115 1.71828 16.5056C3.04552 17.9837 4.8554 18.587 6.15248 19.0093C7.47972 19.4316 8.62597 19.5824 9.47058 19.6427L9.44042 19.6126Z" fill="#231815"/>
<path d="M48.0208 14.2734C48.3224 15.0275 49.0464 15.9325 49.6798 15.842C50.2228 15.7515 50.2831 14.9974 50.8864 13.821C51.3992 12.7954 52.274 11.1363 53.8124 10.4727C55.5016 9.74874 57.3115 10.533 57.7036 10.6838C58.1561 10.8648 58.6387 11.257 59.604 11.9809C61.2932 13.278 62.8014 14.6957 62.8014 14.6957C62.8014 14.6957 64.6415 14.4846 65.4559 13.7003C65.8782 13.3082 66.0894 12.735 65.9386 9.3566C65.8481 6.79261 65.7877 5.5257 65.4861 4.68109C65.1543 3.77615 64.551 2.05677 62.7713 0.940674C60.7201 -0.356404 58.5482 0.035736 58.1863 0.12623C56.6479 0.427876 55.6223 1.39314 53.5711 3.32368C51.731 5.04306 50.6149 6.58146 50.0116 7.4864C49.0464 8.90413 48.4129 10.2012 48.0509 11.6793C47.7493 12.8557 47.7493 13.5796 48.0509 14.2734H48.0208Z" fill="#231815"/>
<path d="M24.7038 21.1811C26.6196 21.1811 28.1727 19.6281 28.1727 17.7122C28.1727 15.7964 26.6196 14.2433 24.7038 14.2433C22.788 14.2433 21.2349 15.7964 21.2349 17.7122C21.2349 19.6281 22.788 21.1811 24.7038 21.1811Z" fill="#231815"/>
<path d="M41.3244 23.8055C43.2402 23.8055 44.7933 22.2524 44.7933 20.3366C44.7933 18.4208 43.2402 16.8677 41.3244 16.8677C39.4086 16.8677 37.8555 18.4208 37.8555 20.3366C37.8555 22.2524 39.4086 23.8055 41.3244 23.8055Z" fill="#231815"/>
<path d="M32.8482 30.1702C33.3007 31.9198 32.7276 34.0615 31.4908 34.6648C31.2797 34.7552 31.0082 34.9061 30.7367 34.7854C29.9826 34.4838 30.616 32.7342 29.5603 31.6483C29.0173 31.0752 28.595 31.3466 28.0822 30.683C27.6599 30.1702 27.4186 29.2955 27.7202 28.5112C28.1124 27.5157 29.319 27.0633 30.1937 27.1538C32.0941 27.3348 32.7879 29.9591 32.8482 30.1702Z" fill="white"/>
</svg>
