<svg width="1786" height="794" viewBox="0 0 1786 794" fill="none" xmlns="http://www.w3.org/2000/svg">
<g clip-path="url(#clip0_869_379)">
<path d="M422.01 415.14C439.642 426.58 461.664 432.77 488.152 433.711C492.541 425.875 496.694 417.804 500.691 409.42C504.688 401.035 509.076 393.043 513.778 385.285C517.148 379.565 522.164 375.883 528.825 374.394C535.486 372.905 541.52 373.532 547.084 376.431C552.178 379.174 555.94 382.856 558.369 387.401C560.799 391.946 561.347 396.961 560.015 402.524C554.451 428.382 548.809 453.927 543.009 479.315C537.21 504.624 531.333 530.169 525.455 555.871C525.22 557.829 524.671 559.945 523.809 562.217C522.869 564.568 521.693 566.292 520.126 567.389C516.051 570.21 511.897 573.031 507.587 576.087C503.277 579.143 498.967 580.397 494.735 579.926C490.503 579.456 486.271 577.105 481.883 573.031C477.572 568.878 474.594 564.803 473.105 560.729C471.146 555.4 470.441 549.523 471.068 543.098C471.695 536.673 471.93 530.326 471.93 523.9C471.93 519.904 472.008 515.83 472.087 511.677C472.165 507.524 472.165 502.822 472.165 497.651L408.766 478.14C405.631 484.33 402.731 490.128 399.832 495.457C397.01 500.785 394.346 506.27 391.838 511.833C385.725 525.154 377.262 534.557 366.369 540.199C355.475 545.841 343.485 547.251 330.398 544.43C310.179 540.199 289.96 535.184 269.82 529.386C249.679 523.587 229.695 517.24 209.868 510.345C200.229 506.583 193.333 500.472 189.179 492.009C184.947 483.546 183.223 474.3 184.007 464.113C185.653 440.684 189.101 417.804 194.351 395.472C199.602 373.14 207.125 351.357 216.843 329.965C220.761 321.189 224.758 314.137 229.068 308.887C233.3 303.637 238.159 299.719 243.723 297.29C249.287 294.782 255.557 293.528 262.531 293.528C269.506 293.528 277.891 294.39 287.766 296.193C299.129 298.152 310.571 300.189 322.012 302.54C333.454 304.89 344.739 307.319 355.946 309.984C369.111 313.666 379.926 317.819 388.312 322.364C396.697 326.909 403.201 332.551 407.982 339.211C412.684 345.871 415.897 354.099 417.464 363.972C419.032 373.845 419.502 386.069 419.032 400.722C419.188 402.759 419.58 404.797 420.05 406.991C420.599 409.185 421.304 411.927 422.245 415.453L422.01 415.14ZM288.314 666.668C290.509 653.034 295.916 640.889 304.615 630.389C313.235 619.889 323.501 611.426 335.413 605.158C347.325 598.889 360.256 594.971 374.284 593.482C388.312 591.993 402.183 593.561 415.897 598.184C429.298 602.65 440.975 609.311 451.084 618.008C461.194 626.706 469.187 636.657 475.143 647.863C481.021 659.068 484.782 671.213 486.428 684.221C487.995 697.306 486.741 710.314 482.745 723.478C478.905 735.858 472.478 747.064 463.466 757.015C454.375 766.967 443.953 775.037 432.119 781.149C420.286 787.261 407.59 791.257 394.032 793.06C380.475 794.862 367.544 793.922 355.162 790.082C342.075 786.007 330.476 779.66 320.367 770.963C310.257 762.265 302.185 752.314 296.073 741.108C289.96 729.903 286.198 717.836 284.709 704.985C283.22 692.135 284.474 679.362 288.393 666.59L288.314 666.668ZM422.715 702.635C425.615 693.153 424.126 684.221 418.091 675.758C412.135 667.295 403.201 661.497 391.446 658.284C379.534 655.385 369.111 656.169 360.178 660.635C351.244 665.101 345.523 672.702 343.015 683.437C341.683 687.825 341.683 692.527 343.172 697.541C344.582 702.635 346.698 707.336 349.598 711.803C352.419 716.269 355.946 720.265 360.256 723.791C364.566 727.317 368.955 729.59 373.422 730.53C378.28 731.627 383.296 731.627 388.39 730.608C393.484 729.59 398.421 727.709 403.28 725.045C408.06 722.381 412.214 719.012 415.583 715.094C419.032 711.176 421.383 707.023 422.715 702.635Z" fill="#231815"/>
<path d="M974.659 646.609C978.186 654.836 978.734 662.594 976.227 669.96C973.719 677.325 967.92 682.575 958.829 685.866C953.265 688.53 944.88 691.351 933.673 694.486C922.545 697.541 909.614 700.441 894.881 703.105C879.913 705.769 863.612 707.963 846.136 709.687C828.66 711.411 810.792 712.351 792.533 712.351C774.273 712.351 756.64 711.489 738.773 709.687C720.826 707.885 704.369 705.691 689.401 703.105C674.119 700.441 660.562 697.62 648.65 694.486C636.738 691.351 627.882 688.53 622.005 685.866C613.463 683.202 607.82 678.109 604.999 670.43C602.178 662.829 603.118 654.836 607.898 646.609C610.25 642.769 613.306 640.262 617.146 639.087C620.986 637.911 624.826 637.363 628.588 637.363C632.428 637.676 636.268 638.303 640.264 639.322C644.261 640.34 648.101 641.281 651.941 642.221C655.154 643.396 660.875 644.963 669.182 647.079C677.411 649.116 687.52 651.154 699.589 653.269C711.657 655.307 725.45 657.109 741.045 658.598C747.471 659.225 754.289 659.773 761.342 660.321V605.236H819.57V660.321C828.66 660.008 837.046 659.46 844.726 658.598C859.694 656.874 872.39 654.836 882.891 652.642C893.314 650.448 901.934 648.333 908.674 646.217C915.413 644.18 920.742 642.534 924.504 641.359C928.031 640.497 932.184 639.557 936.886 638.538C941.588 637.519 946.447 636.814 951.463 636.579C956.165 636.266 960.632 636.892 964.942 638.303C969.174 639.792 972.543 642.534 974.895 646.687L974.659 646.609ZM659.856 372.356H908.517C916.119 372.356 919.959 377.215 919.959 386.931C919.959 409.576 912.906 420.86 898.799 420.86H718.475V457.453H899.74C907.106 457.453 910.79 462.155 910.79 471.557C910.79 494.203 903.737 505.486 889.63 505.486H718.554V532.363C718.554 539.729 722.237 543.412 729.604 543.412H917.921C925.288 543.412 928.971 548.27 928.971 557.986C928.971 580.632 921.918 591.915 907.812 591.915H709.385C676.47 591.915 660.013 575.773 660.013 543.412V372.356H659.856Z" fill="#FFA500"/>
<path d="M1025.36 639.087V590.583H1056.71V442.879H1114.47V590.583H1154.12V442.879H1211.41V590.583H1243.62C1250.98 590.583 1254.67 595.755 1254.67 606.02C1254.67 628.038 1247.61 639.087 1233.51 639.087H1025.36ZM1027.56 429.714V381.211H1236.56C1244.24 381.211 1248.01 386.304 1248.01 396.647C1248.01 418.666 1240.95 429.714 1226.85 429.714H1027.56ZM1337.97 698.247C1337.97 738.209 1326.37 758.19 1303.18 758.19H1294.32C1283.74 758.19 1278.41 753.019 1278.41 742.754V361.386H1337.97V698.247Z" fill="#FFA500"/>
<path d="M1526.68 377.685C1542.82 377.685 1557.17 381.368 1569.7 388.733C1582.24 396.099 1592.75 405.659 1601.21 417.412C1609.75 429.166 1616.26 443.349 1620.8 459.961C1625.35 476.572 1627.62 494.281 1627.62 513.087C1627.62 531.893 1625.35 548.662 1620.8 565.117C1616.26 581.572 1609.75 595.676 1601.21 607.43C1592.67 619.497 1582.17 629.214 1569.7 636.501C1557.24 643.866 1542.9 647.549 1526.68 647.549C1511.71 647.549 1497.84 643.866 1485.22 636.501C1472.61 629.135 1462.03 619.497 1453.49 607.43C1444.63 595.676 1437.97 581.572 1433.42 565.117C1428.88 548.662 1426.61 531.345 1426.61 513.087C1426.61 494.83 1428.88 476.572 1433.42 459.961C1437.97 443.349 1444.71 429.166 1453.49 417.412C1462.03 405.659 1472.61 396.099 1485.22 388.733C1497.84 381.368 1511.71 377.685 1526.68 377.685ZM1526.68 594.188C1532.87 594.188 1538.59 592.072 1543.92 587.762C1549.25 583.531 1553.95 577.576 1558.03 569.897C1561.87 562.218 1564.77 553.363 1566.88 543.255C1568.92 533.147 1569.94 522.333 1569.94 510.893C1569.94 499.453 1568.92 489.188 1566.88 479.158C1564.85 469.207 1561.87 460.352 1558.03 452.752C1553.95 445.386 1549.25 439.588 1543.92 435.356C1538.59 431.125 1532.87 428.931 1526.68 428.931C1520.49 428.931 1515.24 431.046 1509.91 435.356C1504.66 439.588 1500.04 445.386 1496.27 452.752C1492.43 460.431 1489.46 469.207 1487.42 479.158C1485.38 489.188 1484.36 499.766 1484.36 510.893C1484.36 522.02 1485.38 533.147 1487.42 543.255C1489.46 553.363 1492.43 562.296 1496.27 569.897C1500.11 577.576 1504.66 583.531 1509.91 587.762C1515.24 591.994 1520.8 594.188 1526.68 594.188ZM1727.3 698.247C1727.3 738.209 1715.86 758.19 1692.9 758.19H1684.51C1674.25 758.19 1669.08 753.019 1669.08 742.754V361.386H1727.3V481.744H1774.48C1782.16 481.744 1785.92 487.151 1785.92 498.042C1785.92 521.001 1778.87 532.442 1764.76 532.442H1727.3V698.247Z" fill="#FFA500"/>
<path d="M115.122 238.913C120.608 233.976 127.74 225.984 131.188 214.544C136.752 195.973 126.878 186.805 127.191 162.593C127.269 154.365 127.661 125.608 146.234 111.817C160.654 101.16 180.246 103.902 190.042 105.313C217.157 109.152 231.107 124.511 241.921 117.145C247.642 113.227 248.661 105.626 248.739 104.764C249.915 94.4995 241.373 85.9585 237.611 82.2757C199.76 44.5856 124.762 38.7871 124.762 38.7871C88.6342 36.0446 58.7761 33.6939 34.4037 53.8318C20.5326 65.3504 14.5767 78.9847 10.6583 87.9958C-3.05606 119.417 -7.28792 169.018 20.9245 200.831C36.9898 219.01 59.0895 226.219 74.7631 231.312C90.8285 236.562 105.013 238.286 115.122 238.913Z" fill="#231815"/>
<path d="M584.78 173.719C588.541 183.044 597.397 194.014 604.999 192.76C611.425 191.663 612.522 182.574 619.888 168.234C626.315 155.775 636.659 135.559 655.624 127.488C676.313 118.634 698.334 128.115 702.88 130.074C708.287 132.425 714.165 136.891 725.998 145.981C746.687 161.809 764.79 178.969 764.79 178.969C764.79 178.969 787.047 176.54 797.235 166.981C802.328 162.201 804.758 155.305 803.112 114.167C801.858 83.0593 801.231 67.4661 797.47 57.0445C793.473 45.9177 785.871 25.1529 764.32 11.5186C739.242 -4.38801 712.754 0.626893 708.444 1.48883C689.557 5.32836 677.097 17.0037 652.254 40.276C629.684 61.3542 616.048 80.0817 608.839 90.8168C597.162 108.212 589.403 124.04 584.858 141.984C581.253 156.167 581.332 165.257 584.701 173.719H584.78Z" fill="#231815"/>
<path d="M300.853 257.876C324.182 257.876 343.094 238.966 343.094 215.641C343.094 192.315 324.182 173.406 300.853 173.406C277.525 173.406 258.613 192.315 258.613 215.641C258.613 238.966 277.525 257.876 300.853 257.876Z" fill="#231815"/>
<path d="M503.513 289.846C526.841 289.846 545.753 270.937 545.753 247.611C545.753 224.285 526.841 205.376 503.513 205.376C480.184 205.376 461.272 224.285 461.272 247.611C461.272 270.937 480.184 289.846 503.513 289.846Z" fill="#231815"/>
<path d="M399.989 367.342C405.396 388.655 398.422 414.905 383.375 422.035C381.024 423.132 377.419 424.856 374.128 423.524C364.802 419.763 372.56 398.371 359.943 385.442C353.204 378.468 348.031 381.603 341.84 373.688C336.825 367.263 333.69 356.763 337.452 347.282C342.389 334.98 356.887 329.651 367.702 330.748C390.742 333.099 399.284 364.834 399.911 367.342H399.989Z" fill="white"/>
</g>
<defs>
<clipPath id="clip0_869_379">
<rect width="1786" height="794" fill="white"/>
</clipPath>
</defs>
</svg>
