<?xml version="1.0" encoding="utf-8"?>
<!-- Generator: Adobe Illustrator 26.2.1, SVG Export Plug-In . SVG Version: 6.00 Build 0)  -->
<svg version="1.1" id="레이어_1" xmlns="http://www.w3.org/2000/svg" xmlns:xlink="http://www.w3.org/1999/xlink" x="0px"
	 y="0px" viewBox="0 0 841.9 595.3" style="enable-background:new 0 0 841.9 595.3;" xml:space="preserve">
<style type="text/css">
	.st0{fill:#231815;}
	.st1{fill:#F4840B;}
	.st2{fill:#FFFFFF;}
</style>
<g>
	<g>
		<path class="st0" d="M346.4,300.5c2.8,1.8,6.3,2.8,10.5,2.9c0.7-1.2,1.4-2.5,2-3.8c0.6-1.3,1.3-2.6,2.1-3.8
			c0.5-0.9,1.3-1.5,2.4-1.7c1.1-0.2,2-0.1,2.9,0.3c0.8,0.4,1.4,1,1.8,1.7c0.4,0.7,0.5,1.5,0.3,2.4c-0.9,4.1-1.8,8.1-2.7,12.1
			c-0.9,4-1.8,8-2.8,12.1c0,0.3-0.1,0.6-0.3,1c-0.1,0.4-0.3,0.6-0.6,0.8c-0.6,0.4-1.3,0.9-2,1.4c-0.7,0.5-1.4,0.7-2,0.6
			c-0.7-0.1-1.4-0.4-2-1.1c-0.7-0.6-1.2-1.3-1.4-1.9c-0.3-0.8-0.4-1.8-0.3-2.8c0.1-1,0.1-2,0.1-3c0-0.6,0-1.3,0-1.9
			c0-0.7,0-1.4,0-2.2l-10-3.1c-0.5,1-1,1.9-1.4,2.7c-0.4,0.8-0.9,1.7-1.3,2.6c-1,2.1-2.3,3.6-4,4.5c-1.7,0.9-3.6,1.1-5.7,0.7
			c-3.2-0.7-6.4-1.5-9.6-2.4c-3.2-0.9-6.3-1.9-9.5-3c-1.5-0.6-2.6-1.6-3.3-2.9c-0.7-1.3-0.9-2.8-0.8-4.4c0.3-3.7,0.8-7.3,1.6-10.9
			c0.8-3.5,2-7,3.6-10.4c0.6-1.4,1.3-2.5,1.9-3.3c0.7-0.8,1.4-1.5,2.3-1.8c0.9-0.4,1.9-0.6,3-0.6c1.1,0,2.4,0.1,4,0.4
			c1.8,0.3,3.6,0.6,5.4,1c1.8,0.4,3.6,0.8,5.4,1.2c2.1,0.6,3.8,1.2,5.1,2c1.3,0.7,2.4,1.6,3.1,2.7c0.7,1.1,1.3,2.4,1.5,3.9
			c0.2,1.6,0.3,3.5,0.2,5.8c0,0.3,0.1,0.6,0.2,1C346.1,299.5,346.2,300,346.4,300.5z M325.2,340.3c0.3-2.2,1.2-4.1,2.6-5.7
			c1.4-1.7,3-3,4.9-4c1.9-1,3.9-1.6,6.1-1.8c2.2-0.2,4.4,0,6.6,0.7c2.1,0.7,4,1.8,5.6,3.1c1.6,1.4,2.9,3,3.8,4.7
			c0.9,1.8,1.5,3.7,1.8,5.8c0.2,2.1,0.1,4.1-0.6,6.2c-0.6,2-1.6,3.7-3.1,5.3c-1.4,1.6-3.1,2.9-5,3.8c-1.9,1-3.9,1.6-6,1.9
			c-2.1,0.3-4.2,0.1-6.1-0.5c-2.1-0.6-3.9-1.6-5.5-3c-1.6-1.4-2.9-3-3.8-4.7c-1-1.8-1.6-3.7-1.8-5.7
			C324.4,344.4,324.6,342.4,325.2,340.3z M346.5,346c0.5-1.5,0.2-2.9-0.7-4.2c-1-1.3-2.3-2.3-4.2-2.8c-1.9-0.4-3.5-0.3-5,0.4
			c-1.4,0.7-2.3,1.9-2.7,3.6c-0.2,0.7-0.2,1.4,0,2.2c0.2,0.8,0.6,1.6,1,2.2c0.4,0.7,1,1.3,1.7,1.9c0.7,0.5,1.4,0.9,2.1,1.1
			c0.8,0.2,1.6,0.2,2.4,0c0.8-0.2,1.6-0.5,2.4-0.9s1.4-1,2-1.6C345.9,347.4,346.3,346.7,346.5,346z"/>
	</g>
	<g>
		<path class="st1" d="M433.9,337.2c0.6,1.3,0.6,2.5,0.2,3.7c-0.4,1.2-1.3,2-2.7,2.5c-0.9,0.4-2.2,0.9-4,1.4c-1.8,0.5-3.8,1-6.1,1.4
			c-2.4,0.4-5,0.8-7.7,1.1c-2.8,0.3-5.6,0.4-8.5,0.4c-2.8,0-5.7-0.1-8.5-0.4c-2.8-0.3-5.4-0.6-7.8-1.1c-2.4-0.4-4.6-0.9-6.4-1.4
			c-1.9-0.5-3.3-1-4.2-1.4c-1.4-0.4-2.2-1.2-2.7-2.4s-0.3-2.5,0.4-3.8c0.4-0.6,0.9-1,1.5-1.2c0.6-0.2,1.2-0.3,1.8-0.3
			c0.6,0,1.2,0.2,1.8,0.3c0.6,0.2,1.3,0.3,1.8,0.4c0.5,0.2,1.4,0.4,2.7,0.8c1.3,0.3,2.9,0.6,4.8,1c1.9,0.3,4.1,0.6,6.5,0.8
			c1,0.1,2.1,0.2,3.2,0.3v-8.7h9.2v8.7c1.4,0,2.8-0.1,4-0.3c2.4-0.3,4.4-0.6,6-1c1.7-0.3,3-0.7,4.1-1c1.1-0.3,1.9-0.6,2.5-0.8
			c0.6-0.1,1.2-0.3,2-0.4c0.7-0.2,1.5-0.3,2.3-0.3c0.7,0,1.5,0,2.1,0.3C433,336.1,433.5,336.5,433.9,337.2z M384,293.8h39.4
			c1.2,0,1.8,0.8,1.8,2.3c0,3.6-1.1,5.4-3.4,5.4h-28.5v5.8H422c1.2,0,1.7,0.7,1.7,2.2c0,3.6-1.1,5.4-3.4,5.4h-27.1v4.3
			c0,1.2,0.6,1.7,1.7,1.7h29.8c1.2,0,1.7,0.8,1.7,2.3c0,3.6-1.1,5.4-3.4,5.4h-31.4c-5.2,0-7.8-2.6-7.8-7.7L384,293.8L384,293.8z"/>
		<path class="st1" d="M441.9,336v-7.7h5v-23.4h9.1v23.4h6.3v-23.4h9.1v23.4h5.1c1.2,0,1.7,0.8,1.7,2.4c0,3.5-1.1,5.2-3.4,5.2H441.9
			z M442.2,302.8v-7.7h33.1c1.2,0,1.8,0.8,1.8,2.4c0,3.5-1.1,5.2-3.4,5.2H442.2z M491.4,345.3c0,6.3-1.8,9.5-5.5,9.5h-1.4
			c-1.7,0-2.5-0.8-2.5-2.4V292h9.4V345.3z"/>
		<path class="st1" d="M521.2,294.6c2.6,0,4.8,0.6,6.8,1.7c2,1.2,3.6,2.7,5,4.5c1.4,1.9,2.4,4.1,3.1,6.7c0.7,2.6,1.1,5.4,1.1,8.4
			c0,2.9-0.4,5.6-1.1,8.2c-0.7,2.6-1.8,4.8-3.1,6.7c-1.4,1.9-3,3.4-5,4.6c-2,1.2-4.2,1.7-6.8,1.7c-2.4,0-4.6-0.6-6.5-1.7
			c-2-1.2-3.7-2.7-5-4.6c-1.4-1.9-2.4-4.1-3.2-6.7c-0.7-2.6-1.1-5.4-1.1-8.2c0-3,0.4-5.8,1.1-8.4c0.7-2.6,1.8-4.9,3.2-6.7
			c1.4-1.9,3-3.4,5-4.5C516.7,295.2,518.9,294.6,521.2,294.6z M521.2,328.9c1,0,1.9-0.3,2.7-1c0.8-0.7,1.6-1.6,2.2-2.8
			c0.6-1.2,1.1-2.6,1.4-4.2s0.5-3.3,0.5-5.1c0-1.8-0.2-3.4-0.5-5c-0.3-1.6-0.8-3-1.4-4.2c-0.6-1.2-1.4-2.1-2.2-2.7s-1.7-1-2.7-1
			c-0.9,0-1.8,0.3-2.6,1c-0.8,0.7-1.6,1.6-2.2,2.7c-0.6,1.2-1.1,2.6-1.4,4.2c-0.3,1.6-0.5,3.3-0.5,5c0,1.8,0.2,3.5,0.5,5.1
			c0.3,1.6,0.8,3,1.4,4.2s1.3,2.1,2.2,2.8C519.4,328.5,520.3,328.9,521.2,328.9z M553,345.3c0,6.3-1.8,9.5-5.4,9.5h-1.3
			c-1.6,0-2.4-0.8-2.4-2.4V292h9.2v19h7.5c1.2,0,1.8,0.9,1.8,2.6c0,3.6-1.1,5.4-3.4,5.4H553V345.3z"/>
	</g>
	<g>
		<path class="st0" d="M297.8,272.6c0.9-0.8,2-2.1,2.5-3.9c0.9-3-0.7-4.4-0.6-8.2c0-1.3,0.1-5.9,3-8c2.3-1.7,5.4-1.3,6.9-1
			c4.3,0.6,6.5,3,8.2,1.9c0.9-0.6,1.1-1.8,1.1-2c0.2-1.6-1.2-3-1.8-3.6c-6-6-17.9-6.9-17.9-6.9c-5.7-0.4-10.5-0.8-14.3,2.4
			c-2.2,1.8-3.1,4-3.8,5.4c-2.2,5-2.8,12.8,1.6,17.8c2.5,2.9,6,4,8.5,4.8C294,272.3,296.2,272.5,297.8,272.6z"/>
		<path class="st0" d="M372.2,262.3c0.6,1.5,2,3.2,3.2,3c1-0.2,1.2-1.6,2.3-3.9c1-2,2.7-5.2,5.7-6.4c3.3-1.4,6.8,0.1,7.5,0.4
			c0.8,0.4,1.8,1.1,3.7,2.5c3.3,2.5,6.1,5.2,6.1,5.2l0,0c0,0,3.5-0.4,5.1-1.9c0.8-0.8,1.2-1.8,0.9-8.4c-0.2-4.9-0.3-7.4-0.9-9
			c-0.6-1.8-1.8-5.1-5.2-7.2c-4-2.5-8.2-1.7-8.8-1.6c-3,0.6-5,2.4-8.9,6.1c-3.6,3.3-5.7,6.3-6.9,8c-1.8,2.7-3.1,5.3-3.8,8.1
			C371.6,259.5,371.6,261,372.2,262.3z"/>
		<circle class="st0" cx="327.2" cy="269" r="6.7"/>
		<circle class="st0" cx="359.3" cy="274" r="6.7"/>
	</g>
	<path class="st2" d="M342.9,293c0.8,3.4-0.2,7.5-2.6,8.7c-0.4,0.2-1,0.4-1.5,0.2c-1.5-0.6-0.3-4-2.2-6c-1.1-1.1-1.9-0.6-2.9-1.9
		c-0.8-1-1.3-2.7-0.7-4.2c0.8-1.9,3.1-2.8,4.8-2.6C341.5,287.5,342.8,292.6,342.9,293z"/>
</g>
</svg>
