<svg width="33" height="33" viewBox="0 0 33 33" fill="none" xmlns="http://www.w3.org/2000/svg">
<path d="M21.8654 6.96191V31.9979M11.1346 1.00096V26.037M20.7677 6.71155L12.2323 1.25132C11.8928 1.08174 11.5177 0.995634 11.1382 1.00017C10.7587 1.00471 10.3857 1.09975 10.0504 1.2774L1.63416 6.92391C1.44269 7.02533 1.28247 7.17701 1.17074 7.36265C1.05901 7.54828 0.999981 7.76085 1 7.97751V30.0181C0.999982 30.2237 1.05314 30.4258 1.15431 30.6048C1.25549 30.7838 1.40123 30.9336 1.5774 31.0397C1.75357 31.1457 1.95416 31.2044 2.15971 31.21C2.36525 31.2156 2.56876 31.168 2.75046 31.0717L10.0399 26.3186C10.378 26.1395 10.7543 26.0444 11.1369 26.0413C11.5195 26.0382 11.8973 26.1271 12.2382 26.3007L20.574 31.7401C20.912 31.9123 21.2862 32.0014 21.6655 32C22.0449 31.9986 22.4184 31.9067 22.7551 31.7319L31.3569 26.0735C31.5507 25.9729 31.7132 25.821 31.8266 25.6345C31.94 25.4479 32 25.2337 32 25.0154V2.98074C32 2.77514 31.9469 2.57303 31.8457 2.39404C31.7445 2.21505 31.5988 2.06526 31.4226 1.95922C31.2464 1.85319 31.0458 1.79451 30.8403 1.78889C30.6347 1.78327 30.4312 1.83089 30.2495 1.92714L22.9467 6.68547C22.6117 6.86263 22.2393 6.9574 21.8603 6.96193C21.4814 6.96647 21.1069 6.88064 20.7677 6.71155Z" stroke="black" stroke-width="2" stroke-linecap="round" stroke-linejoin="round"/>
</svg>
