<svg width="50" height="41" viewBox="0 0 50 41" fill="none" xmlns="http://www.w3.org/2000/svg">
<path d="M34.0356 35.1209L32.3128 38.7511C32.1214 39.1593 31.6322 39.3311 31.2281 39.1378C30.9941 39.0089 30.8239 38.7941 30.7814 38.5148L29.9732 32.9728L34.0356 35.0994V35.1209Z" fill="#A15E33"/>
<path d="M12.7665 25.6264L37.3536 37.72L38.4808 35.3357C39.9697 32.1995 38.651 28.4404 35.5457 26.9368L8.49137 13.855C6.38573 18.3015 8.34248 23.4998 12.7452 25.6264H12.7665Z" fill="#E29058"/>
<path d="M37.7364 36.9038L36.0136 40.534C35.8222 40.9422 35.333 41.114 34.9289 40.9207C34.6949 40.7918 34.5248 40.577 34.4822 40.2977L33.674 34.7557L37.7364 36.8823V36.9038Z" fill="#E29058"/>
<path d="M12.1305 6.22688L8.27205 14.3638L15.0244 17.6297L18.8828 9.49277L12.1305 6.22688Z" fill="#E29058"/>
<path d="M13.681 25.2613L11.9582 28.8915C11.7668 29.2996 11.2776 29.4715 10.8735 29.2781C10.6395 29.1493 10.4694 28.9345 10.4269 28.6552L9.61863 23.1132L13.681 25.2398V25.2613Z" fill="#A15E33"/>
<path d="M8.49137 13.855L9.29959 12.1581L11.9157 13.8765H8.49137V13.855Z" fill="#A15E33"/>
<path d="M17.1904 26.9582L15.4676 30.5885C15.2762 30.9966 14.787 31.1684 14.3829 30.9751C14.149 30.8462 13.9788 30.6314 13.9363 30.3522L13.128 24.8102L17.1904 26.9368V26.9582Z" fill="#E29058"/>
<path d="M0.877023 0.064442L3.76962 1.58957C3.13155 1.95474 1.77033 2.53472 0.238949 1.95474C0.132603 1.52513 0.068796 1.09551 0.00498859 0.665901C-0.0375496 0.343691 0.196411 0.0429613 0.536717 0C0.664331 0 0.770677 0 0.877023 0.064442Z" fill="black"/>
<path d="M3.76962 1.58957L18.8707 9.47297L11.9157 13.8765C3.45059 10.6329 0.962099 5.1124 0.238949 1.95474C1.77033 2.53472 3.13155 1.95474 3.76962 1.58957Z" fill="#E29058"/>
<path d="M13.6598 22.0821C15.4464 22.9413 17.5946 22.1895 18.4453 20.3852C18.5517 20.1489 18.658 19.8911 18.7005 19.6118L20.7849 10.2892L16.2971 8.11969L11.9795 17.249C11.1287 19.0533 11.8732 21.2229 13.6598 22.0821Z" fill="#A15E33"/>
<path d="M12.4687 9.06484C12.7154 9.06484 12.9153 8.86288 12.9153 8.61375C12.9153 8.36461 12.7154 8.16265 12.4687 8.16265C12.222 8.16265 12.022 8.36461 12.022 8.61375C12.022 8.86288 12.222 9.06484 12.4687 9.06484Z" fill="black"/>
<path d="M49.796 22.4473C49.796 22.4473 46.3929 30.8892 38.0342 29.0633C38.0342 29.0633 41.5861 35.0564 47.2862 31.061C47.2862 31.061 50.8807 27.5597 49.796 22.4258V22.4473Z" fill="#A15E33"/>
</svg>
