<svg width="34" height="34" viewBox="0 0 34 34" fill="none" xmlns="http://www.w3.org/2000/svg">
<path d="M7.28516 1.21484V3.64341H31.5709V25.5006H33.9994V1.21484H7.28516Z" fill="#808080"/>
<path d="M3.64453 7.28746H27.9302V29.1446H30.3588V4.85889H3.64453V7.28746Z" fill="#808080"/>
<path d="M0 32.7857H26.7143V8.5H0V32.7857ZM2.42857 10.9286H24.2857V30.3571H2.42857V10.9286Z" fill="#808080"/>
<path d="M9.71596 24.2857L3.64453 20.3118V29.1429H23.0731V20.3118L19.4302 17L9.71596 24.2857Z" fill="#808080"/>
<path d="M8.49888 19.4279C9.84015 19.4279 10.9275 18.3406 10.9275 16.9994C10.9275 15.6581 9.84015 14.5708 8.49888 14.5708C7.15762 14.5708 6.07031 15.6581 6.07031 16.9994C6.07031 18.3406 7.15762 19.4279 8.49888 19.4279Z" fill="#808080"/>
</svg>
